<svg width="81" height="77" viewBox="0 0 81 77" fill="none" xmlns="http://www.w3.org/2000/svg">
<g id="Group 27">
<path id="Line 3 (Stroke)" fill-rule="evenodd" clip-rule="evenodd" d="M60.5793 68.8869L28.8585 32.6536L44.368 32.5266L76.216 68.8869L60.5793 68.8869Z" fill="#7DF4DC"/>
<path id="Ellipse 18" d="M68.5993 34.0284C68.5993 27.2983 66.6036 20.7192 62.8645 15.1233C59.1254 9.5273 53.8109 5.16579 47.593 2.59026C41.3751 0.0147287 34.5331 -0.659148 27.9322 0.653847C21.3314 1.96684 15.2681 5.20774 10.5091 9.9667L20.2518 19.7094C23.0838 16.8773 26.6921 14.9487 30.6202 14.1673C34.5484 13.386 38.62 13.787 42.3203 15.3197C46.0205 16.8524 49.1832 19.4479 51.4083 22.778C53.6334 26.1082 54.8211 30.0233 54.8211 34.0284H68.5993Z" fill="#7DF4DC"/>
</g>
</svg>
