<svg width="60" height="45" viewBox="0 0 60 45" fill="none" xmlns="http://www.w3.org/2000/svg">
<g id="Group 29">
<path id="Vector" d="M10.8331 38.0555C10.6158 36.9704 9.75218 36.6814 8.78421 36.5885C5.66012 36.2906 5.10679 38.6969 5.10679 39.7128C5.10679 41.4497 5.60006 42.8873 8.66554 42.8873C9.23174 42.8873 10.7931 42.2872 10.7931 41.3126H15.204C15.0253 44.204 10.3084 44.897 8.2509 44.897C3.98869 44.897 0.338427 44.0787 0.515721 39.7526C0.641543 36.6637 3.47253 34.4962 9.10735 34.6304C12.2472 34.7071 15.2655 35.7141 15.2769 38.0555H10.8331ZM55.0123 38.0555C54.7964 36.9704 53.9314 36.6814 52.9648 36.5885C49.8407 36.2906 49.2874 38.6969 49.2874 39.7128C49.2874 41.4497 49.7792 42.8873 52.8476 42.8873C53.4138 42.8873 54.9737 42.2872 54.9737 41.3126H59.3846C59.2059 44.204 54.4904 44.897 52.4315 44.897C48.1693 44.897 44.5205 44.0787 44.6963 39.7526C44.8221 36.6637 47.6546 34.4962 53.2894 34.6304C56.4292 34.7071 59.4461 35.7141 59.4589 38.0555H55.0123ZM16.0661 34.8383H21.7925L26.6781 41.8965H26.7167V34.8383H30.387V44.6389H24.9008L19.775 37.5793H19.7364V44.6389H16.0661V34.8383ZM31.5208 34.8383H38.4753C41.8181 34.8383 43.7841 35.7996 43.7841 37.2534C43.7841 38.1116 42.9606 39.1717 41.1261 39.4843V39.5123C43.3352 39.6479 44.1501 41.087 44.1501 41.9496C44.1501 43.6776 42.2342 44.6389 38.4953 44.6389H31.5208V34.8383ZM35.5456 38.6453H36.6995C38.4753 38.6453 39.4175 38.5023 39.4175 37.743C39.4175 36.9276 38.6326 36.6578 37.0341 36.6578H35.5442V38.6453H35.5456ZM35.5456 42.5836H36.6995C38.8399 42.5836 39.6248 42.3521 39.6248 41.5927C39.6248 40.7774 38.634 40.5061 37.0355 40.5061H35.5456V42.5836Z" fill="white"/>
<path id="Vector_2" d="M18.4165 11.8637L26.4048 30.7012L9.92498 19.0649C5.79002 16.2428 6.62788 11.4037 8.91983 9.27165C12.1597 6.44957 16.7408 7.4286 18.4165 11.8637Z" fill="white"/>
<path id="Vector_3" d="M29.3648 7.42829L26.4609 28.5113L18.1938 8.46629C16.4066 3.45467 20.4271 0.171097 23.1094 0.113594C26.1821 -0.232899 30.0353 2.18666 29.3648 7.42829Z" fill="white"/>
<path id="Vector_4" d="M41.9339 8.40897L33.7226 28.513L31.0975 10.367C30.873 7.60246 32.5502 7.54495 33.165 7.02595C33.0535 6.62195 32.2156 6.62195 32.2156 6.62195H30.6514C30.4841 1.89784 34.0586 -0.17523 36.9639 0.0547835C40.0909 0.171264 43.6096 3.91487 41.9339 8.40897Z" fill="white"/>
<path id="Vector_5" d="M50.3136 18.9499L33.8353 30.6452L41.599 12.0377C43.9453 6.16201 49.42 7.31355 51.3745 9.56061C53.4964 11.7487 54.1112 16.1853 50.3136 18.9499Z" fill="white"/>
<path id="Vector_6" d="M52.0435 32.718H32.9957L48.469 21.5992C52.268 19.0072 56.29 21.3692 57.3509 24.7678C58.469 28.5704 55.954 32.718 52.0435 32.718Z" fill="white"/>
<path id="Vector_7" d="M2.71842 24.538C4.1711 20.6204 8.19311 19.2374 11.7676 21.5994L27.2423 32.7182H8.47192C4.56143 32.7182 1.49023 29.0306 2.71842 24.538Z" fill="white"/>
</g>
</svg>
