<svg width="64" height="31" viewBox="0 0 64 31" fill="none" xmlns="http://www.w3.org/2000/svg">
<path id="Subtract" fill-rule="evenodd" clip-rule="evenodd" d="M21.7759 20.8318C21.7759 21.364 21.3724 21.8377 20.7966 21.897V21.8977H16.1873C6.22056 21.8977 7.1422 8.76043 15.6111 8.76043H20.6812V4.98165H15.4388C12.0665 4.98165 9.54148 6.2814 7.8536 8.20615C6.15853 10.1391 5.28605 12.728 5.2791 15.3295C5.27215 17.9305 6.13033 20.5159 7.86077 22.4463C9.58433 24.369 12.2023 25.6747 15.7842 25.6747H24.4842C25.0772 25.6747 25.5124 25.1928 25.5124 24.6191V6.09694C25.5124 5.1224 26.0037 4.42245 26.7129 4.19407C27.403 3.97185 28.1837 4.23889 28.6673 4.92669L28.6785 4.94253L28.6883 4.95924C29.9249 7.05655 33.0051 12.1424 35.7783 16.7076C37.1644 18.9894 38.4731 21.1399 39.4353 22.72C39.9164 23.51 40.3109 24.1574 40.5851 24.6074L40.902 25.1272L41.0044 25.2952C41.2816 25.6813 41.6092 25.7388 41.8154 25.6694C42.013 25.6028 42.2771 25.3558 42.2771 24.7368V6.09694C42.2771 5.12246 42.7683 4.42248 43.4776 4.19407C44.1676 3.97184 44.9483 4.23892 45.432 4.92661L45.4432 4.94247L45.4531 4.95921C46.6902 7.05714 49.7565 12.1436 52.5152 16.7085C53.8942 18.9904 55.1958 21.1409 56.1527 22.721C56.6311 23.5111 57.0234 24.1585 57.296 24.6084L57.5157 24.971L57.7125 25.2957C57.9848 25.6745 58.326 25.7429 58.5556 25.668C58.7734 25.5969 59.0419 25.3437 59.0419 24.7368V0.179404H55.3058V14.5C53.3182 10.9635 51.3211 7.43264 49.3144 3.90752C45.5694 -2.66131 38.5403 0.0608879 38.5403 5.68269V14.5C38.5403 14.5 36.3516 10.5941 32.5489 3.90752C28.8043 -2.66131 21.7759 0.0608879 21.7759 5.68269V20.8318ZM59.9813 0.179404H63.717V25.2699C63.717 31.7199 56.3428 32.7258 53.3464 27.5777C51.5608 24.5599 46.9522 16.7485 46.9522 16.7485V25.2703C47.0092 31.7202 39.635 32.7262 36.5816 27.5781C34.7961 24.5603 30.2445 16.7489 30.2445 16.7489V24.4418C30.2445 28.4069 27.9977 30.478 24.4835 30.478H16.3604C-4.43743 30.478 -4.61014 0.17977 16.0723 0.17977H20.6812V4.0167H15.4388C11.8113 4.0167 9.02883 5.4242 7.15557 7.56033C5.28951 9.68826 4.34717 12.5138 4.33966 15.3269C4.33214 18.1404 5.25985 20.9695 7.16966 23.0999C9.08636 25.2381 11.9631 26.6397 15.7842 26.6397H24.4842C25.6192 26.6397 26.4518 25.7016 26.4518 24.6191V6.09694C26.4518 5.47371 26.7382 5.19719 26.994 5.11483C27.2653 5.02745 27.6308 5.11204 27.8954 5.47718C29.1429 7.5923 32.2174 12.6686 34.9812 17.2184C36.3676 19.5006 37.6765 21.6514 38.6389 23.2317C39.12 24.0218 39.5146 24.6694 39.7888 25.1193L40.1057 25.6393L40.2169 25.8216C40.217 25.8218 40.217 25.8218 40.6151 25.5657L40.217 25.8218L40.2252 25.8353L40.2343 25.8482C40.7042 26.5165 41.4379 26.8121 42.1082 26.5862C42.7892 26.3568 43.2166 25.6567 43.2166 24.7368V6.09694C43.2166 5.47365 43.5029 5.19717 43.7586 5.11483C44.0299 5.02747 44.3954 5.112 44.6602 5.47724C45.9075 7.59177 48.9673 12.6675 51.7171 17.2175C53.0963 19.4996 54.398 21.6504 55.355 23.2307C55.8335 24.0208 56.2257 24.6683 56.4984 25.1183L56.8135 25.6383L56.9237 25.82L56.924 25.8206C56.9241 25.8207 56.9241 25.8208 57.3229 25.5657L56.9241 25.8208L56.9326 25.8347L56.9419 25.848C57.4165 26.5236 58.1648 26.8079 58.84 26.5876C59.5296 26.3627 59.9813 25.6688 59.9813 24.7368V0.179404Z" fill="white"/>
</svg>
