<svg width="126" height="15" viewBox="0 0 126 15" fill="none" xmlns="http://www.w3.org/2000/svg">
<g id="Group 31">
<path id="Vector" d="M17.1061 14.6389H21.6637L24.1071 0.313185H19.5495L18.6484 5.44346H14.6973L15.5984 0.313185H11.0408L8.59741 14.6389H13.155L14.0735 9.27785H18.0245L17.1061 14.6389ZM26.6892 0.295433L25.3029 8.26599C25.1815 8.88731 25.1296 9.49087 25.1296 10.0589C25.1296 14.2839 28.7341 14.9229 30.9002 14.9229C35.4405 14.9229 37.3987 13.3785 38.1092 9.20684L39.6342 0.277681H35.0766L33.7769 7.76894C33.361 10.1122 33.0664 11.3371 31.3681 11.3371C30.259 11.3371 29.7218 10.7335 29.7218 9.49087C29.7218 9.01157 29.7911 8.42576 29.9298 7.69794L31.2468 0.277681H26.6892V0.295433ZM63.7219 14.6389H68.2795L68.9207 10.9465H71.0695C75.0379 10.9465 77.2388 8.74529 77.2388 4.73339C77.2388 1.91085 75.3325 0.295433 71.988 0.295433H66.1653L63.7219 14.6389ZM70.8269 7.41391H69.5099L70.1164 4.04106H71.3468C72.3519 4.04106 72.8891 4.55587 72.8891 5.49671C72.8891 6.68608 72.1093 7.41391 70.8269 7.41391ZM86.094 -0.00634766C81.1378 -0.00634766 78.1745 3.27774 78.1745 8.79855C78.1745 12.6329 80.5313 14.9407 84.4824 14.9407C89.4386 14.9407 92.4019 11.6566 92.4019 6.13578C92.4192 2.28364 90.0624 -0.00634766 86.094 -0.00634766ZM84.7597 11.2305C83.5813 11.2305 82.8881 10.3607 82.8881 8.90506C82.8881 8.35475 82.9401 7.87545 83.0441 7.32515C83.3907 5.44346 83.9799 3.72153 85.8341 3.72153C87.0125 3.72153 87.7057 4.59137 87.7057 6.04702C87.7057 6.59732 87.6537 7.07662 87.5497 7.62693C87.2031 9.49087 86.6139 11.2305 84.7597 11.2305ZM108.258 14.6389H112.816L114.618 4.14757H118.049L118.708 0.313185H107.045L106.387 4.14757H110.026L108.258 14.6389ZM100.703 5.60322C99.2643 5.14168 98.6751 4.94641 98.6751 4.25409C98.6751 3.79254 98.9697 3.24223 99.8362 3.24223C100.477 3.24223 101.015 3.61502 101.223 4.16533L105.243 3.04696C104.775 1.02326 103.077 -0.00634766 100.148 -0.00634766C94.6374 -0.00634766 94.2041 3.77479 94.2041 4.92865C94.2041 7.27189 95.4172 8.70979 98.0512 9.45537C98.7444 9.65063 99.5416 9.86366 99.5416 10.6447C99.5416 11.266 99.091 11.6566 98.3112 11.6566C97.6007 11.6566 96.8382 11.2305 96.5783 10.485L92.6098 11.5856C93.0431 13.7158 95.0013 14.9229 98.0686 14.9229C100.408 14.9229 104.324 14.2839 104.324 9.95242C104.342 7.7867 103.146 6.36655 100.703 5.60322Z" fill="white"/>
<path id="Vector_2" d="M6.05002 14.6387L8.51078 0.312988H0.972534V14.6387H6.05002ZM120.666 0.312988L118.223 14.6387H125.761V0.312988H120.666Z" fill="white"/>
<path id="Vector_3" d="M45.0755 10.4134H48.9052L49.5291 6.80983H45.6993L46.1326 4.14706H51.4873L52.1458 0.294922H42.2335L39.79 14.6384H44.3476L45.0755 10.4134ZM57.0154 10.4134H60.8625L61.4863 6.80983H57.6565L58.0898 4.14706H63.4445L64.103 0.294922H54.1907L51.7473 14.6384H56.3049L57.0154 10.4134Z" fill="white"/>
</g>
</svg>
