<svg width="81" height="77" viewBox="0 0 81 77" fill="none" xmlns="http://www.w3.org/2000/svg">
<g id="Group 27">
<path id="Line 3 (Stroke)" fill-rule="evenodd" clip-rule="evenodd" d="M60.2498 69.1086L28.5289 32.8753L44.0384 32.7483L75.8864 69.1086L60.2498 69.1086Z" fill="#7DF4DC"/>
<path id="Ellipse 18" d="M68.2698 34.2501C68.2698 27.5199 66.274 20.9409 62.535 15.3449C58.7959 9.74898 53.4813 5.38747 47.2635 2.81194C41.0456 0.236408 34.2036 -0.437468 27.6027 0.875527C21.0018 2.18852 14.9386 5.42942 10.1796 10.1884L19.9223 19.9311C22.7543 17.099 26.3626 15.1704 30.2907 14.389C34.2189 13.6077 38.2905 14.0087 41.9907 15.5414C45.691 17.0741 48.8536 19.6696 51.0788 22.9997C53.3039 26.3298 54.4915 30.245 54.4915 34.2501H68.2698Z" fill="#7DF4DC"/>
</g>
</svg>
