<svg width="130" height="39" viewBox="0 0 130 39" fill="none" xmlns="http://www.w3.org/2000/svg">
<g id="Group 30">
<path id="Vector" d="M59.3162 25.7756H57.198C57.008 25.7756 56.9372 25.5957 56.8514 25.421L54.3522 21.1112H53.9686C53.5157 21.1112 52.1133 21.0607 51.7143 21.0381V25.421C51.7143 25.6151 51.5741 25.7756 51.3825 25.7756H49.6479C49.5563 25.775 49.4686 25.7375 49.4038 25.6711C49.339 25.6047 49.3024 25.5149 49.3018 25.421V13.7731C49.3018 13.4164 49.5072 13.2923 49.8564 13.2397C50.7602 13.0971 52.6997 13.0093 53.9681 13.0093C56.6393 13.0093 59.1072 13.9872 59.1072 17.0261V17.1865C59.1072 19.0687 58.1881 20.0986 56.7656 20.6641L59.4877 25.421C59.5237 25.4747 59.5237 25.5247 59.5237 25.5646C59.5242 25.6851 59.4549 25.7756 59.3162 25.7756ZM56.7133 17.0261C56.7133 15.6931 55.7037 15.125 53.9686 15.125C53.603 15.125 52.0244 15.1602 51.7143 15.1949V19.0497C51.989 19.0671 53.6702 19.1034 53.9686 19.1034C55.7535 19.1034 56.7133 18.7499 56.7133 17.1865V17.0261ZM64.1499 22.2743C64.1499 23.7651 64.2058 23.804 65.5179 23.804H69.9099C70.002 23.8043 70.0902 23.8418 70.1554 23.9084C70.2206 23.975 70.2575 24.0653 70.258 24.1596V25.2948C70.258 25.5457 70.1707 25.6346 69.9099 25.6688C69.3553 25.7582 68.2251 25.9165 66.1618 25.9165C63.2821 25.9165 61.7538 25.9371 61.7538 22.2743V16.651C61.7538 12.9893 63.2821 13.0098 66.1618 13.0098C68.2251 13.0098 69.3553 13.1702 69.9099 13.2581C70.1707 13.2923 70.258 13.3828 70.258 13.6321V14.7678C70.258 14.9619 70.1014 15.1255 69.9099 15.1255H65.5179C64.2058 15.1255 64.1499 15.165 64.1499 16.651V18.2817H69.7024C69.7941 18.2821 69.8819 18.3194 69.9469 18.3855C70.0119 18.4517 70.049 18.5413 70.0501 18.6352V19.9182C70.0493 20.0123 70.0123 20.1023 69.9473 20.1687C69.8822 20.2352 69.7943 20.2727 69.7024 20.2733H64.1499V22.2743ZM78.0479 25.9165C75.257 25.9165 72.8523 24.6735 72.8523 20.8856V13.4895C72.8523 13.2923 73.011 13.1508 73.2015 13.1508H74.9161C75.1086 13.1508 75.2637 13.2923 75.2637 13.4895V20.8856C75.2637 22.9129 76.1783 23.8745 78.0485 23.8745C79.9238 23.8745 80.8378 22.9129 80.8378 20.8856V13.4895C80.8378 13.2923 80.9929 13.1508 81.1834 13.1508H82.9006C83.0932 13.1508 83.2498 13.2923 83.2498 13.4895V20.8856C83.2487 24.673 80.843 25.9165 78.0479 25.9165ZM94.6568 15.2113H91.1958V25.421C91.1943 25.5155 91.1567 25.6056 91.091 25.6719C91.0253 25.7382 90.9368 25.7754 90.8445 25.7756H89.1274C89.0356 25.7752 88.9476 25.7377 88.8825 25.6714C88.8175 25.605 88.7805 25.5151 88.7797 25.421V15.2113H85.3161C85.1277 15.2113 84.971 15.0892 84.971 14.8935V13.4895C84.971 13.2923 85.1277 13.1508 85.3161 13.1508H94.6563C94.8437 13.1508 95.0004 13.2923 95.0004 13.4895V14.8935C95.0009 15.0892 94.8448 15.2113 94.6568 15.2113ZM118.218 25.7756H116.1C115.909 25.7756 115.841 25.5957 115.755 25.421L113.255 21.1112H112.867C112.419 21.1112 111.015 21.0607 110.614 21.0381V25.421C110.614 25.6151 110.476 25.7756 110.286 25.7756H108.553C108.461 25.7754 108.373 25.7381 108.308 25.6717C108.243 25.6053 108.206 25.5152 108.205 25.421V13.7731C108.205 13.4164 108.411 13.2923 108.759 13.2397C109.66 13.0971 111.603 13.0093 112.867 13.0093C115.541 13.0093 118.007 13.9872 118.007 17.0261V17.1865C118.007 19.0687 117.086 20.0986 115.664 20.6641L118.392 25.421C118.418 25.4638 118.43 25.5142 118.427 25.5646C118.427 25.6851 118.356 25.7756 118.218 25.7756ZM115.616 17.0261C115.616 15.6931 114.606 15.125 112.867 15.125C112.505 15.125 110.927 15.1602 110.614 15.1949V19.0497C110.894 19.0671 112.577 19.1034 112.867 19.1034C114.657 19.1034 115.616 18.7499 115.616 17.1865V17.0261ZM124.84 25.9244C123.306 25.9244 121.753 25.6551 120.918 25.4589C120.747 25.4231 120.589 25.2995 120.589 25.1044V23.824C120.589 23.6299 120.747 23.4857 120.918 23.4857H120.952C121.648 23.5752 123.272 23.8061 124.876 23.8061C126.418 23.8061 126.891 23.2401 126.891 22.2106C126.891 20.8772 123.784 20.1391 122.268 19.4995C120.759 18.8598 120.224 17.6352 120.224 16.3927C120.224 14.4364 121.761 13.0145 124.987 13.0145C126.641 13.0145 128.155 13.3365 128.745 13.4817C128.92 13.5174 129.056 13.6421 129.056 13.8188V15.1339C129.056 15.3096 128.938 15.4532 128.761 15.4532H128.728C127.582 15.3475 126.394 15.1313 124.886 15.1313C123.6 15.1313 122.638 15.5932 122.638 16.3927C122.638 16.9777 123.29 17.5147 124.061 17.8283C124.831 18.1392 125.841 18.5416 126.995 19.0171C128.457 19.6226 129.404 20.5047 129.404 22.2106C129.404 24.0044 128.312 25.9244 124.84 25.9244ZM99.1813 22.2743C99.1813 23.7651 99.2352 23.804 100.55 23.804H104.945C105.037 23.8054 105.124 23.8434 105.188 23.9099C105.253 23.9763 105.289 24.066 105.29 24.1596V25.2948C105.29 25.5457 105.202 25.6346 104.945 25.6688C104.387 25.7582 103.259 25.9165 101.195 25.9165C98.3099 25.9165 96.7853 25.9371 96.7853 22.2743V16.651C96.7853 12.9893 98.3099 13.0098 101.195 13.0098C103.259 13.0098 104.387 13.1702 104.945 13.2581C105.202 13.2923 105.29 13.3828 105.29 13.6321V14.7678C105.29 14.9619 105.132 15.1255 104.945 15.1255H100.55C99.2352 15.1255 99.1813 15.165 99.1813 16.651V18.2817H104.734C104.927 18.2817 105.078 18.4432 105.078 18.6352V19.9182C105.079 20.012 105.043 20.1021 104.978 20.1686C104.914 20.2352 104.826 20.2728 104.734 20.2733H99.1813V22.2743Z" fill="white"/>
<path id="Vector_2" d="M18.3462 13.923C18.5465 14.3054 18.4104 14.7852 18.0356 14.9924C17.8548 15.0919 17.6428 15.1137 17.4463 15.0531C17.2498 14.9926 17.0848 14.8546 16.9875 14.6695C16.7821 14.2876 16.9238 13.8068 17.2977 13.6006C17.3871 13.5508 17.4853 13.5197 17.5865 13.509C17.6877 13.4983 17.79 13.5082 17.8875 13.5382C17.985 13.5681 18.0757 13.6176 18.1544 13.6836C18.2331 13.7497 18.2983 13.831 18.3462 13.923ZM14.5314 20.1102C14.4261 20.1701 14.348 20.2701 14.314 20.3885C14.28 20.5068 14.2928 20.6342 14.3496 20.743C14.3777 20.7969 14.4159 20.8445 14.4622 20.883C14.5085 20.9214 14.5618 20.9501 14.619 20.9671C14.6763 20.9842 14.7362 20.9893 14.7955 20.9823C14.8547 20.9752 14.9119 20.9561 14.9638 20.926C15.0169 20.898 15.064 20.8594 15.1022 20.8123C15.1404 20.7653 15.169 20.7108 15.1863 20.6522C15.2035 20.5936 15.2091 20.532 15.2026 20.4712C15.1962 20.4103 15.1778 20.3514 15.1486 20.298C15.0907 20.1897 14.9933 20.1092 14.8777 20.074C14.7621 20.0389 14.6377 20.0519 14.5314 20.1102ZM14.4544 18.2081C14.3322 18.2767 14.2414 18.3919 14.2017 18.5287C14.162 18.6655 14.1766 18.8129 14.2423 18.9387C14.3845 19.2059 14.7039 19.3022 14.9622 19.1612C15.2174 19.0181 15.315 18.6841 15.1769 18.4248C15.1437 18.3616 15.0985 18.3058 15.0441 18.2607C14.9897 18.2155 14.9271 18.1819 14.8598 18.1617C14.7926 18.1416 14.7222 18.1353 14.6526 18.1432C14.583 18.1512 14.5156 18.1732 14.4544 18.2081ZM14.936 16.3775C14.7952 16.456 14.6902 16.5881 14.6436 16.7453C14.5971 16.9024 14.6126 17.072 14.687 17.2175C14.8487 17.5169 15.2159 17.6326 15.5086 17.469C15.5789 17.4305 15.6411 17.3782 15.6917 17.315C15.7422 17.2518 15.7801 17.1791 15.8031 17.1009C15.8262 17.0227 15.8339 16.9406 15.826 16.8594C15.818 16.7781 15.7944 16.6993 15.7566 16.6273C15.6793 16.4837 15.5498 16.377 15.3963 16.3302C15.2428 16.2835 15.0775 16.3004 14.936 16.3775ZM15.9189 14.7941C15.8393 14.8373 15.7689 14.8963 15.7118 14.9677C15.6546 15.039 15.6119 15.1212 15.586 15.2096C15.5602 15.298 15.5518 15.3908 15.5612 15.4825C15.5706 15.5743 15.5978 15.6632 15.6411 15.7441C15.8208 16.0803 16.2285 16.2081 16.5592 16.0245C16.6386 15.9819 16.7089 15.9235 16.766 15.8528C16.8232 15.7822 16.866 15.7006 16.8922 15.6128C16.9183 15.525 16.9271 15.4328 16.9182 15.3414C16.9093 15.2501 16.8827 15.1615 16.8401 15.0808C16.7983 14.9998 16.7411 14.928 16.6721 14.8697C16.603 14.8114 16.5234 14.7677 16.4378 14.741C16.3521 14.7144 16.2622 14.7053 16.1732 14.7145C16.0841 14.7236 15.9977 14.7506 15.9189 14.7941ZM15.1666 21.9113C15.1225 21.9356 15.0835 21.9686 15.0519 22.0084C15.0203 22.0482 14.9967 22.094 14.9824 22.1432C14.9681 22.1924 14.9635 22.244 14.9688 22.295C14.974 22.346 14.9891 22.3954 15.0131 22.4405C15.0619 22.5305 15.1431 22.5974 15.2395 22.6269C15.3358 22.6564 15.4396 22.6461 15.5286 22.5983C15.6164 22.5477 15.6814 22.4638 15.7095 22.3646C15.7376 22.2655 15.7267 22.159 15.6791 22.0681C15.6308 21.9783 15.55 21.9116 15.4541 21.8823C15.3583 21.853 15.255 21.8634 15.1666 21.9113ZM23.9445 15.4338C24.0031 15.5421 24.1007 15.6227 24.2164 15.6586C24.3321 15.6944 24.4569 15.6826 24.5643 15.6258C24.6701 15.5657 24.7487 15.4654 24.7832 15.3466C24.8176 15.2278 24.8052 15.0999 24.7487 14.9903C24.7205 14.9364 24.6822 14.8888 24.636 14.8501C24.5897 14.8115 24.5365 14.7826 24.4793 14.7651C24.4221 14.7476 24.3621 14.742 24.3027 14.7484C24.2434 14.7548 24.1858 14.7732 24.1335 14.8025C24.0806 14.8313 24.0337 14.8704 23.9956 14.9176C23.9575 14.9649 23.9288 15.0194 23.9113 15.078C23.8937 15.1367 23.8876 15.1983 23.8933 15.2593C23.899 15.3203 23.9164 15.3796 23.9445 15.4338ZM22.4024 14.4285C22.5416 14.6926 22.8692 14.7889 23.1188 14.6453C23.3822 14.5022 23.4762 14.1739 23.3355 13.9109C23.2693 13.7847 23.157 13.6904 23.0232 13.6486C22.8894 13.6069 22.7449 13.621 22.6212 13.6879C22.4972 13.7573 22.4048 13.8738 22.3638 14.0123C22.3229 14.1509 22.3368 14.3004 22.4024 14.4285ZM20.6206 13.9393C20.6577 14.0108 20.7084 14.074 20.7696 14.1253C20.8307 14.1766 20.9013 14.2149 20.977 14.2381C21.0528 14.2612 21.1323 14.2687 21.2109 14.2601C21.2895 14.2516 21.3657 14.2271 21.435 14.1881C21.5053 14.1499 21.5676 14.0978 21.6183 14.0348C21.6689 13.9718 21.7069 13.8992 21.73 13.8211C21.7532 13.7431 21.761 13.6611 21.7531 13.5799C21.7452 13.4987 21.7218 13.4199 21.684 13.3481C21.6466 13.2763 21.5956 13.2128 21.534 13.1614C21.4724 13.1099 21.4014 13.0716 21.3252 13.0485C21.2489 13.0255 21.169 13.0182 21.09 13.0271C21.011 13.036 20.9345 13.0609 20.865 13.1003C20.7951 13.1389 20.7333 13.1912 20.6831 13.2542C20.633 13.3173 20.5955 13.3899 20.5727 13.4678C20.55 13.5458 20.5426 13.6276 20.5508 13.7085C20.559 13.7894 20.5827 13.8678 20.6206 13.9393ZM18.7601 14.0145C18.8024 14.0957 18.8599 14.1674 18.9292 14.2258C18.9986 14.2841 19.0785 14.3278 19.1644 14.3545C19.2503 14.3812 19.3405 14.3903 19.4298 14.3812C19.5191 14.3722 19.6058 14.3452 19.685 14.3018C19.8433 14.2122 19.9609 14.0623 20.0122 13.8846C20.0635 13.7069 20.0445 13.5157 19.9592 13.3523C19.8704 13.1952 19.7254 13.0797 19.555 13.0303C19.3845 12.9809 19.2019 13.0014 19.046 13.0875C18.8901 13.1737 18.773 13.3186 18.7196 13.4917C18.6663 13.6647 18.6808 13.8523 18.7601 14.0145ZM25.103 16.8577C25.2005 17.0466 25.4316 17.115 25.6103 17.014C25.6543 16.9906 25.6933 16.9584 25.7249 16.9194C25.7566 16.8803 25.7803 16.8352 25.7947 16.7867C25.8091 16.7381 25.8139 16.6871 25.8088 16.6366C25.8037 16.5861 25.7887 16.5372 25.7649 16.4927C25.7175 16.4014 25.6369 16.333 25.5407 16.3021C25.4444 16.2711 25.3401 16.2803 25.2504 16.3275C25.0742 16.4322 25.0008 16.6731 25.103 16.8577ZM23.7935 24.2579C23.7459 24.1655 23.6807 24.0836 23.6018 24.0173C23.5229 23.9509 23.4319 23.9013 23.3341 23.8713C23.2363 23.8413 23.1337 23.8316 23.0321 23.8427C22.9306 23.8538 22.8323 23.8855 22.7429 23.936C22.6535 23.9849 22.5744 24.0515 22.5104 24.1319C22.4463 24.2124 22.3985 24.3051 22.3697 24.4046C22.3409 24.5042 22.3316 24.6086 22.3426 24.7118C22.3535 24.815 22.3843 24.915 22.4333 25.0059C22.6366 25.3889 23.1059 25.5288 23.4818 25.3268C23.8552 25.1153 23.9943 24.633 23.7935 24.2579ZM16.8324 23.491C16.7745 23.3836 16.6777 23.3039 16.563 23.2689C16.4482 23.2338 16.3246 23.2463 16.2188 23.3037C16.1663 23.3325 16.12 23.3715 16.0823 23.4187C16.0446 23.4659 16.0164 23.5202 15.9993 23.5785C15.9822 23.6369 15.9765 23.6981 15.9825 23.7587C15.9885 23.8194 16.0062 23.8782 16.0344 23.9318C16.0621 23.986 16.1001 24.0339 16.1462 24.0727C16.1923 24.1116 16.2455 24.1406 16.3028 24.1579C16.36 24.1753 16.4201 24.1807 16.4794 24.1739C16.5387 24.167 16.5961 24.148 16.6481 24.118C16.7004 24.0893 16.7467 24.0503 16.7844 24.0032C16.822 23.9561 16.8502 23.9019 16.8673 23.8437C16.8844 23.7854 16.8901 23.7243 16.8842 23.6638C16.8782 23.6032 16.8606 23.5445 16.8324 23.491ZM18.3765 24.4967C18.3094 24.3709 18.1964 24.2773 18.0622 24.2366C17.9279 24.1959 17.7834 24.2113 17.6602 24.2795C17.5985 24.3127 17.5438 24.3581 17.4995 24.4133C17.4552 24.4684 17.4221 24.532 17.4021 24.6004C17.3822 24.6689 17.3758 24.7407 17.3833 24.8117C17.3909 24.8827 17.4122 24.9514 17.4461 25.0138C17.5796 25.2784 17.9036 25.3794 18.1604 25.2374C18.2838 25.1674 18.3756 25.0507 18.416 24.9123C18.4564 24.7738 18.4423 24.6246 18.3765 24.4967ZM20.1625 24.9859C20.0069 24.6856 19.6357 24.5788 19.3378 24.7345C19.1974 24.8137 19.093 24.9463 19.0472 25.1037C19.0015 25.2611 19.0181 25.4306 19.0934 25.5756C19.2546 25.8791 19.6218 25.9912 19.9155 25.8292C19.9863 25.791 20.0489 25.7387 20.0998 25.6754C20.1506 25.6121 20.1887 25.5391 20.2117 25.4606C20.2347 25.3821 20.2421 25.2997 20.2337 25.2182C20.2253 25.1367 20.2011 25.0578 20.1625 24.9859ZM22.0204 24.9097C21.9339 24.7469 21.788 24.6257 21.6147 24.5727C21.4413 24.5197 21.2545 24.5391 21.095 24.6267C20.7623 24.8071 20.6468 25.2295 20.8275 25.573C20.8689 25.6539 20.9257 25.7255 20.9946 25.7836C21.0635 25.8416 21.143 25.8849 21.2285 25.911C21.314 25.937 21.4037 25.9452 21.4924 25.9352C21.581 25.9251 21.6668 25.8969 21.7446 25.8523C22.0784 25.6735 22.197 25.2469 22.0204 24.9097ZM26.2414 18.8214C26.4648 18.6899 26.55 18.4058 26.4335 18.1833C26.4051 18.1297 26.3667 18.0823 26.3205 18.0439C26.2743 18.0054 26.2211 17.9767 26.164 17.9593C26.1069 17.9419 26.0471 17.9362 25.9878 17.9425C25.9286 17.9488 25.8712 17.967 25.8188 17.9961C25.7655 18.0245 25.7184 18.0636 25.6801 18.111C25.6418 18.1584 25.6131 18.2132 25.5958 18.2721C25.5785 18.331 25.5728 18.3929 25.5792 18.4541C25.5856 18.5152 25.6039 18.5745 25.6329 18.6284C25.6895 18.7357 25.7849 18.8161 25.8987 18.8522C26.0125 18.8883 26.1355 18.8772 26.2414 18.8214ZM26.3267 20.7204C26.5844 20.5768 26.6769 20.2469 26.5367 19.985C26.504 19.9223 26.4595 19.8669 26.4058 19.8219C26.3522 19.7769 26.2903 19.7433 26.2239 19.7228C26.1575 19.7024 26.0878 19.6956 26.0188 19.7029C25.9498 19.7101 25.8829 19.7313 25.8219 19.7651C25.6984 19.8348 25.6065 19.9512 25.5658 20.0894C25.5251 20.2277 25.5389 20.3767 25.6042 20.5047C25.7408 20.764 26.0725 20.8598 26.3267 20.7204ZM25.8414 22.5494C26.1423 22.3837 26.2471 22.0112 26.0935 21.7067C26.0168 21.5619 25.8873 21.4542 25.7332 21.407C25.5792 21.3598 25.4131 21.3769 25.2714 21.4547C25.1299 21.5338 25.0245 21.6668 24.9781 21.825C24.9318 21.9832 24.9482 22.1537 25.0239 22.2995C25.1008 22.4428 25.2296 22.5494 25.3826 22.5962C25.5356 22.6429 25.7004 22.6261 25.8414 22.5494ZM24.8652 24.1259C25.1959 23.9502 25.3181 23.5194 25.1389 23.1832C24.9571 22.8455 24.5463 22.7145 24.2172 22.9008C24.1384 22.9443 24.0689 23.0033 24.0124 23.0745C23.956 23.1456 23.9138 23.2274 23.8882 23.3152C23.8626 23.4031 23.8542 23.4952 23.8634 23.5864C23.8727 23.6775 23.8993 23.766 23.9419 23.8466C23.9841 23.9276 24.0415 23.9992 24.111 24.0573C24.1804 24.1153 24.2604 24.1586 24.3464 24.1846C24.4323 24.2106 24.5225 24.2188 24.6116 24.2087C24.7007 24.1986 24.7869 24.1705 24.8652 24.1259Z" fill="white"/>
<path id="Vector_3" d="M23.5574 12.0335C23.5205 12.1614 23.4594 12.2805 23.3775 12.384C23.2956 12.4876 23.1946 12.5736 23.0802 12.6371C22.9658 12.7006 22.8403 12.7403 22.7109 12.754C22.5814 12.7677 22.4506 12.755 22.326 12.7168C22.2005 12.6797 22.0834 12.6175 21.9815 12.5337C21.8795 12.4499 21.7948 12.3463 21.7322 12.2289C21.6696 12.1114 21.6304 11.9823 21.6168 11.8492C21.6031 11.7161 21.6154 11.5816 21.6528 11.4533C21.7279 11.1946 21.9003 10.977 22.132 10.8485C22.2467 10.7848 22.3725 10.745 22.5023 10.7311C22.6321 10.7173 22.7632 10.7298 22.8883 10.7679C23.0133 10.806 23.1298 10.869 23.2312 10.9532C23.3325 11.0374 23.4166 11.1412 23.4787 11.2588C23.5408 11.3763 23.5798 11.5052 23.5933 11.6381C23.6068 11.7711 23.5946 11.9054 23.5574 12.0335ZM14.0354 14.4359C13.9102 14.4002 13.7762 14.4161 13.6622 14.4802C13.5482 14.5442 13.4632 14.6514 13.4254 14.7789C13.394 14.905 13.4117 15.0387 13.4747 15.1517C13.5376 15.2648 13.641 15.3484 13.7629 15.3849C13.8849 15.4215 14.0159 15.4081 14.1284 15.3476C14.2409 15.2872 14.3261 15.1844 14.3661 15.0608C14.4473 14.7962 14.2932 14.518 14.0354 14.4359ZM15.7582 12.4949C15.682 12.4718 15.6021 12.4645 15.5231 12.4732C15.444 12.482 15.3675 12.5066 15.2978 12.5458C15.2281 12.585 15.1667 12.6378 15.1171 12.7014C15.0674 12.765 15.0305 12.838 15.0085 12.9162C14.9858 12.9943 14.9784 13.0763 14.9867 13.1574C14.995 13.2384 15.0189 13.317 15.057 13.3886C15.095 13.4602 15.1466 13.5233 15.2086 13.5744C15.2706 13.6255 15.3419 13.6636 15.4183 13.6863C15.5725 13.732 15.7381 13.7134 15.879 13.6346C16.02 13.5558 16.1247 13.4231 16.1706 13.2655C16.2149 13.1073 16.1964 12.9376 16.1192 12.7933C16.0419 12.649 15.9122 12.5417 15.7582 12.4949ZM17.9658 11.1267C17.7699 11.0687 17.5596 11.0922 17.3805 11.1919C17.2013 11.2916 17.0677 11.4596 17.0086 11.6595C16.9522 11.8604 16.9756 12.076 17.0739 12.2593C17.1721 12.4425 17.3371 12.5784 17.5329 12.6374C17.6297 12.667 17.7313 12.6767 17.8319 12.6659C17.9324 12.6551 18.0298 12.624 18.1185 12.5744C18.2072 12.5248 18.2854 12.4577 18.3487 12.377C18.4119 12.2962 18.459 12.2035 18.487 12.104C18.5423 11.9036 18.5187 11.689 18.4213 11.5063C18.3238 11.3235 18.1603 11.1872 17.9658 11.1267ZM20.4106 10.5664C20.3015 10.533 20.1871 10.522 20.0738 10.534C19.9606 10.5461 19.8508 10.581 19.7508 10.6368C19.6508 10.6925 19.5626 10.768 19.4912 10.8588C19.4198 10.9497 19.3666 11.0541 19.3348 11.1661C19.3024 11.2777 19.2918 11.3948 19.3037 11.5106C19.3155 11.6264 19.3496 11.7386 19.404 11.8409C19.4583 11.9431 19.5319 12.0334 19.6204 12.1064C19.7089 12.1795 19.8106 12.2339 19.9197 12.2666C20.1396 12.3324 20.3759 12.3063 20.5771 12.1942C20.7783 12.082 20.928 11.8928 20.9934 11.6679C21.0263 11.5564 21.0372 11.4393 21.0257 11.3235C21.0141 11.2076 20.9803 11.0952 20.9261 10.9928C20.8719 10.8904 20.7984 10.8 20.71 10.7268C20.6215 10.6536 20.5198 10.5991 20.4106 10.5664ZM12.9463 16.8388C12.9004 16.8249 12.8524 16.8203 12.8049 16.8255C12.7573 16.8307 12.7113 16.8454 12.6693 16.8689C12.6274 16.8923 12.5904 16.9241 12.5604 16.9622C12.5305 17.0004 12.5082 17.0443 12.4949 17.0913C12.4809 17.1386 12.4761 17.1884 12.4809 17.2376C12.4856 17.2868 12.4998 17.3346 12.5226 17.3783C12.5454 17.4219 12.5764 17.4605 12.6137 17.4918C12.6511 17.5232 12.6941 17.5467 12.7404 17.561C12.9365 17.6189 13.1388 17.5032 13.1958 17.3043C13.2094 17.257 13.2137 17.2073 13.2085 17.1583C13.2033 17.1092 13.1887 17.0617 13.1655 17.0184C13.1423 16.9752 13.111 16.937 13.0734 16.9062C13.0358 16.8754 12.9926 16.8525 12.9463 16.8388ZM27.78 19.0976C27.7615 19.1609 27.7555 19.2274 27.7623 19.2931C27.7691 19.3588 27.7886 19.4225 27.8196 19.4805C27.8505 19.5385 27.8925 19.5896 27.9429 19.6309C27.9933 19.6721 28.0512 19.7027 28.1132 19.7209C28.238 19.7585 28.3722 19.7438 28.4864 19.68C28.6005 19.6162 28.6853 19.5086 28.722 19.3808C28.7587 19.253 28.7443 19.1155 28.6821 18.9986C28.6198 18.8816 28.5148 18.7948 28.39 18.7572C28.2651 18.7198 28.1307 18.7347 28.0164 18.7984C27.9021 18.8622 27.8171 18.9698 27.78 19.0976ZM27.213 16.5858C27.1901 16.6641 27.1825 16.7464 27.1908 16.8278C27.199 16.9092 27.2229 16.9881 27.2611 17.0599C27.2993 17.1318 27.3511 17.1952 27.4133 17.2464C27.4756 17.2977 27.5471 17.3358 27.6238 17.3585C27.9474 17.4564 28.2811 17.267 28.3756 16.9377C28.4701 16.6084 28.2878 16.2649 27.9669 16.1702C27.8907 16.1467 27.8108 16.1389 27.7317 16.1471C27.6526 16.1552 27.5759 16.1793 27.5059 16.2179C27.4358 16.2565 27.3739 16.3089 27.3237 16.372C27.2735 16.4351 27.2359 16.5078 27.213 16.5858ZM25.8779 14.3265C25.8495 14.4257 25.8405 14.5297 25.8513 14.6325C25.8622 14.7353 25.8927 14.8349 25.9411 14.9257C25.9895 15.0164 26.0549 15.0965 26.1336 15.1613C26.2122 15.2262 26.3025 15.2745 26.3994 15.3036C26.4963 15.3327 26.5978 15.3419 26.6981 15.3308C26.7985 15.3197 26.8957 15.2885 26.9843 15.2389C27.0729 15.1893 27.151 15.1223 27.2143 15.0417C27.2776 14.9612 27.3248 14.8686 27.3532 14.7694C27.382 14.6704 27.3912 14.5664 27.3805 14.4637C27.3698 14.3609 27.3393 14.2614 27.2908 14.1708C27.2423 14.0802 27.1767 14.0004 27.0979 13.9359C27.019 13.8714 26.9285 13.8236 26.8315 13.7952C26.6363 13.7375 26.4267 13.7608 26.2482 13.8603C26.0697 13.9597 25.9367 14.1272 25.8779 14.3265ZM23.999 12.5717C23.9348 12.7972 23.9607 13.0397 24.071 13.2458C24.1813 13.4518 24.367 13.6045 24.5872 13.6703C24.8074 13.736 25.0442 13.7095 25.2453 13.5965C25.4464 13.4835 25.5955 13.2933 25.6597 13.0677C25.6921 12.9562 25.7027 12.8393 25.6909 12.7237C25.6791 12.608 25.6451 12.4958 25.5909 12.3937C25.5366 12.2915 25.4632 12.2013 25.3748 12.1283C25.2864 12.0553 25.1848 12.0009 25.0758 11.9683C24.8549 11.9022 24.6174 11.9286 24.4155 12.0417C24.2136 12.1548 24.0638 12.3454 23.999 12.5717ZM27.5812 21.633C27.5548 21.7282 27.5657 21.8301 27.6116 21.9171C27.6576 22.0041 27.735 22.0692 27.8272 22.0986C27.8734 22.1128 27.9219 22.1174 27.9698 22.1123C28.0178 22.1071 28.0643 22.0922 28.1066 22.0685C28.1489 22.0448 28.1861 22.0126 28.2162 21.974C28.2463 21.9354 28.2685 21.891 28.2817 21.8434C28.2956 21.7962 28.3002 21.7467 28.2953 21.6976C28.2904 21.6485 28.2761 21.6009 28.2531 21.5576C28.2301 21.5143 28.199 21.476 28.1615 21.4451C28.124 21.4141 28.0809 21.3911 28.0347 21.3774C27.9414 21.3506 27.8417 21.3624 27.7569 21.4102C27.6721 21.458 27.609 21.538 27.5812 21.633ZM19.1268 27.4846C19.1641 27.3559 19.1761 27.2211 19.1624 27.0876C19.1486 26.9542 19.1092 26.8249 19.0465 26.7071C18.9838 26.5893 18.899 26.4854 18.797 26.4013C18.695 26.3171 18.5778 26.2545 18.4521 26.2168C18.3269 26.1791 18.1957 26.167 18.0659 26.1813C17.9362 26.1956 17.8104 26.2359 17.6959 26.3C17.5814 26.3641 17.4804 26.4507 17.3985 26.5549C17.3167 26.659 17.2558 26.7787 17.2192 26.907C17.182 27.0355 17.17 27.1703 17.1838 27.3037C17.1977 27.437 17.2371 27.5662 17.2997 27.6839C17.3624 27.8016 17.4472 27.9054 17.5492 27.9895C17.6511 28.0735 17.7683 28.1361 17.8939 28.1737C18.4208 28.3299 18.9769 28.0195 19.1268 27.4846ZM12.9971 19.8372C13.0341 19.7094 13.02 19.5719 12.958 19.4548C12.896 19.3377 12.7911 19.2507 12.6664 19.2128C12.5411 19.1764 12.4069 19.1919 12.2927 19.2558C12.1784 19.3198 12.0932 19.4271 12.0553 19.5547C12.0374 19.6179 12.0317 19.6841 12.0388 19.7496C12.0458 19.815 12.0654 19.8784 12.0964 19.936C12.1274 19.9937 12.1693 20.0445 12.2195 20.0856C12.2697 20.1267 12.3274 20.1572 12.3891 20.1754C12.4507 20.1944 12.5154 20.2008 12.5794 20.194C12.6434 20.1873 12.7054 20.1676 12.762 20.1362C12.8185 20.1047 12.8684 20.0621 12.9088 20.0108C12.9491 19.9595 12.9791 19.9004 12.9971 19.8372ZM13.565 22.3474C13.5877 22.2697 13.595 22.1883 13.5866 22.1077C13.5783 22.0271 13.5544 21.9491 13.5164 21.878C13.4784 21.807 13.427 21.7444 13.3651 21.6938C13.3033 21.6433 13.2323 21.6058 13.1563 21.5836C13.0802 21.5592 13.0002 21.5507 12.9209 21.5586C12.8416 21.5665 12.7646 21.5906 12.6946 21.6295C12.6245 21.6684 12.5628 21.7213 12.5131 21.785C12.4633 21.8488 12.4266 21.9221 12.405 22.0007C12.3602 22.1583 12.3782 22.3277 12.4553 22.4716C12.5323 22.6155 12.662 22.7222 12.8158 22.7682C12.9697 22.8142 13.135 22.7957 13.2755 22.7167C13.416 22.6378 13.5202 22.5049 13.565 22.3474ZM14.9022 24.6098C14.9585 24.4082 14.935 24.1921 14.8368 24.0081C14.7385 23.8242 14.5735 23.6873 14.3774 23.6272C14.1815 23.5694 13.9712 23.5935 13.7926 23.6941C13.614 23.7948 13.4816 23.9638 13.4243 24.1643C13.3955 24.2634 13.3862 24.3674 13.3967 24.4703C13.4073 24.5732 13.4377 24.6729 13.486 24.7638C13.5344 24.8546 13.5998 24.9348 13.6784 24.9996C13.7571 25.0644 13.8476 25.1127 13.9445 25.1416C14.0415 25.1714 14.1432 25.1812 14.2439 25.1705C14.3446 25.1598 14.4422 25.1289 14.5312 25.0795C14.6202 25.0301 14.6988 24.9632 14.7624 24.8826C14.8261 24.802 14.8736 24.7093 14.9022 24.6098ZM16.7811 26.3673C16.8449 26.1412 16.8186 25.8985 16.708 25.6922C16.5974 25.486 16.4116 25.333 16.1911 25.2668C16.0822 25.2339 15.9679 25.2234 15.8549 25.236C15.742 25.2486 15.6326 25.284 15.5331 25.3401C15.4336 25.3963 15.3459 25.4721 15.2752 25.5631C15.2044 25.6542 15.152 25.7588 15.121 25.8707C15.0889 25.9821 15.0787 26.0988 15.0907 26.2142C15.1028 26.3297 15.137 26.4415 15.1913 26.5434C15.2456 26.6453 15.319 26.7352 15.4073 26.8079C15.4956 26.8807 15.5971 26.9349 15.7059 26.9675C15.9261 27.033 16.1628 27.0066 16.3642 26.8942C16.5656 26.7818 16.7154 26.5924 16.7811 26.3673ZM26.7401 24.4973C26.8653 24.5353 27.0002 24.5209 27.115 24.4572C27.2299 24.3935 27.3154 24.2857 27.3527 24.1574C27.3885 24.0294 27.3738 23.892 27.3116 23.775C27.2495 23.658 27.1449 23.5707 27.0205 23.532C26.8955 23.4954 26.7615 23.5106 26.6475 23.5744C26.5334 23.6382 26.4484 23.7454 26.4109 23.8729C26.3743 24.0004 26.3884 24.1375 26.45 24.2545C26.5117 24.3714 26.6159 24.4587 26.7401 24.4973ZM25.0204 26.4409C25.1736 26.4873 25.3386 26.4693 25.479 26.3911C25.6194 26.3129 25.7237 26.1808 25.7691 26.0238C25.7923 25.9457 25.8003 25.8637 25.7924 25.7825C25.7845 25.7013 25.7611 25.6225 25.7233 25.5506C25.6855 25.4788 25.6342 25.4153 25.5724 25.3639C25.5105 25.3125 25.4393 25.2741 25.3629 25.251C25.2083 25.2046 25.0421 25.2227 24.9005 25.3013C24.7589 25.38 24.6534 25.5128 24.607 25.6708C24.5637 25.8291 24.5828 25.9984 24.6601 26.1424C24.7374 26.2864 24.8668 26.3936 25.0204 26.4409ZM22.8128 27.8097C22.9099 27.8393 23.0118 27.849 23.1125 27.8381C23.2133 27.8272 23.311 27.796 23.3999 27.7463C23.4888 27.6965 23.5673 27.6292 23.6307 27.5483C23.6941 27.4674 23.7413 27.3744 23.7695 27.2747C23.7978 27.1756 23.8067 27.0717 23.7958 26.969C23.785 26.8663 23.7544 26.7668 23.7059 26.6763C23.6575 26.5857 23.5921 26.5058 23.5135 26.4411C23.4348 26.3765 23.3445 26.3283 23.2477 26.2994C23.1509 26.2702 23.0495 26.2607 22.9491 26.2717C22.8487 26.2826 22.7515 26.3136 22.6628 26.3631C22.5742 26.4125 22.4959 26.4793 22.4325 26.5598C22.369 26.6402 22.3217 26.7326 22.2931 26.8318C22.2646 26.9309 22.2554 27.0349 22.266 27.1377C22.2767 27.2405 22.307 27.3402 22.3553 27.431C22.4035 27.5218 22.4688 27.6019 22.5473 27.6669C22.6258 27.7319 22.716 27.7804 22.8128 27.8097ZM20.37 28.3678C20.4786 28.4017 20.5927 28.4132 20.7057 28.4015C20.8186 28.3899 20.9282 28.3554 21.028 28.3C21.1278 28.2446 21.2159 28.1694 21.2871 28.0788C21.3583 27.9882 21.4112 27.884 21.4428 27.7723C21.4748 27.6606 21.485 27.5435 21.4728 27.4277C21.4606 27.3119 21.4263 27.1997 21.3718 27.0976C21.2617 26.8912 21.0761 26.7381 20.8558 26.6719C20.6355 26.6057 20.3986 26.6318 20.1971 26.7446C19.9957 26.8573 19.8462 27.0474 19.7816 27.2731C19.7185 27.4982 19.745 27.7397 19.8553 27.9449C19.9655 28.15 20.1506 28.302 20.37 28.3678Z" fill="white"/>
<path id="Vector_4" d="M28.5017 12.5511C28.269 12.8026 27.9484 12.9492 27.6102 12.9586C27.2721 12.9681 26.9441 12.8397 26.6983 12.6016C26.5761 12.4841 26.4778 12.3429 26.4091 12.1862C26.3404 12.0296 26.3026 11.8606 26.2979 11.6889C26.2932 11.5172 26.3217 11.3463 26.3818 11.186C26.4419 11.0257 26.5324 10.8791 26.648 10.7547C26.7625 10.6296 26.9001 10.5288 27.0527 10.4582C27.2053 10.3876 27.37 10.3486 27.5374 10.3433C27.7048 10.338 27.8716 10.3666 28.0281 10.4275C28.1847 10.4883 28.328 10.5802 28.4499 10.6979C28.6963 10.9368 28.8401 11.2661 28.8499 11.6135C28.8596 11.961 28.7344 12.2982 28.5017 12.5511ZM15.7847 9.58011C15.6629 9.46333 15.501 9.40058 15.3343 9.40551C15.1675 9.41043 15.0094 9.48264 14.8943 9.60641C14.7805 9.73084 14.7193 9.89636 14.7241 10.0668C14.7289 10.2373 14.7993 10.3989 14.92 10.5164C15.0418 10.6333 15.2039 10.6961 15.3707 10.691C15.5376 10.6858 15.6957 10.6133 15.8104 10.4891C15.9242 10.3648 15.9854 10.1995 15.9806 10.0292C15.9758 9.85886 15.9054 9.69741 15.7847 9.58011ZM18.9731 8.33762C18.8228 8.19376 18.6231 8.11662 18.4175 8.12303C18.212 8.12943 18.0172 8.21886 17.8757 8.37181C17.8057 8.44803 17.751 8.53764 17.7148 8.63552C17.6785 8.7334 17.6615 8.83764 17.6646 8.94227C17.6677 9.04691 17.6909 9.14989 17.7328 9.24534C17.7748 9.3408 17.8347 9.42684 17.9091 9.49857C18.0597 9.64226 18.2596 9.71913 18.4653 9.71243C18.6709 9.70573 18.8657 9.616 19.007 9.4628C19.1473 9.30856 19.2225 9.10379 19.2161 8.89306C19.2098 8.68234 19.1224 8.48271 18.9731 8.33762ZM22.3931 8.08144C22.2024 7.89823 21.9487 7.79977 21.6874 7.80756C21.426 7.81534 21.1783 7.92875 20.9984 8.123C20.828 8.31981 20.7392 8.57682 20.7506 8.8396C20.762 9.10237 20.8729 9.35026 21.0597 9.53074C21.2465 9.71122 21.4946 9.81011 21.7513 9.80646C22.0081 9.80281 22.2533 9.69691 22.4352 9.51119C22.6141 9.31561 22.7102 9.05536 22.7023 8.78741C22.6944 8.51946 22.5832 8.26562 22.3931 8.08144ZM25.6287 8.92993C25.5228 8.82714 25.3981 8.74679 25.2618 8.69349C25.1256 8.64019 24.9803 8.615 24.8345 8.61935C24.6887 8.6237 24.5452 8.65751 24.4122 8.71884C24.2791 8.78018 24.1593 8.86782 24.0594 8.97675C23.9593 9.08523 23.881 9.21286 23.829 9.35233C23.7771 9.49181 23.7525 9.6404 23.7566 9.78963C23.7607 9.93886 23.7934 10.0858 23.8529 10.2221C23.9125 10.3583 23.9976 10.4812 24.1036 10.5838C24.3181 10.7903 24.6038 10.9013 24.8981 10.8925C25.1924 10.8837 25.4713 10.7559 25.6739 10.537C25.8754 10.3175 25.9838 10.0251 25.9753 9.72388C25.9669 9.42267 25.8422 9.13718 25.6287 8.92993ZM13.0817 11.7558C12.9909 11.669 12.8703 11.6224 12.7462 11.6261C12.622 11.6299 12.5044 11.6836 12.4187 11.7758C12.3762 11.8214 12.343 11.8753 12.3209 11.9342C12.2988 11.993 12.2883 12.0558 12.29 12.1189C12.2916 12.1819 12.3055 12.244 12.3306 12.3016C12.3558 12.3592 12.3919 12.4111 12.4367 12.4543C12.4812 12.498 12.5338 12.5322 12.5913 12.5549C12.6488 12.5776 12.7101 12.5884 12.7718 12.5866C12.8334 12.5849 12.894 12.5706 12.9502 12.5446C13.0064 12.5187 13.057 12.4815 13.0991 12.4354C13.1846 12.3428 13.2308 12.2193 13.2276 12.0919C13.2243 11.9645 13.1718 11.8436 13.0817 11.7558ZM29.4101 23.6115C29.2956 23.7361 29.234 23.9021 29.2388 24.0732C29.2436 24.2443 29.3145 24.4065 29.4358 24.5241C29.5587 24.6361 29.7194 24.6946 29.8837 24.6871C30.048 24.6796 30.2029 24.6068 30.3156 24.4841C30.4283 24.3614 30.4899 24.1985 30.4871 24.03C30.4844 23.8616 30.4177 23.7008 30.3011 23.582C30.1789 23.4653 30.0166 23.403 29.8497 23.4085C29.6827 23.414 29.5247 23.487 29.4101 23.6115ZM30.2163 20.2827C30.0765 20.4369 30.0017 20.6414 30.0084 20.8517C30.015 21.0621 30.1025 21.2612 30.2518 21.4058C30.3259 21.4778 30.4132 21.534 30.5086 21.5712C30.604 21.6085 30.7057 21.6261 30.8078 21.6229C30.9099 21.6198 31.0103 21.596 31.1034 21.553C31.1965 21.51 31.2803 21.4485 31.3502 21.3721C31.4204 21.2963 31.4752 21.2069 31.5115 21.1091C31.5478 21.0114 31.5649 20.9073 31.5617 20.8027C31.5585 20.6982 31.5351 20.5954 31.4929 20.5002C31.4507 20.405 31.3905 20.3193 31.3158 20.248C31.1651 20.104 30.965 20.0268 30.7591 20.0333C30.5531 20.0398 30.358 20.1295 30.2163 20.2827ZM29.9688 16.7773C29.8798 16.8738 29.8104 16.9874 29.7643 17.1114C29.7183 17.2355 29.6966 17.3677 29.7006 17.5004C29.7046 17.6331 29.7341 17.7637 29.7874 17.8847C29.8407 18.0057 29.9169 18.1147 30.0114 18.2054C30.1057 18.2965 30.2166 18.3677 30.3377 18.4148C30.4588 18.4619 30.5879 18.484 30.7174 18.48C30.8469 18.4759 30.9743 18.4457 31.0924 18.3911C31.2105 18.3365 31.317 18.2586 31.4056 18.1618C31.5794 17.9656 31.671 17.7074 31.6608 17.4428C31.6506 17.1781 31.5393 16.9282 31.351 16.7467C31.1627 16.5652 30.9123 16.4667 30.6538 16.4724C30.3953 16.4782 30.1493 16.5876 29.9688 16.7773ZM28.7744 13.5285C28.6238 13.6923 28.5241 13.8983 28.4878 14.1202C28.4515 14.3421 28.4803 14.5701 28.5705 14.7753C28.6607 14.9804 28.8084 15.1536 28.9947 15.2728C29.181 15.3919 29.3977 15.4518 29.6172 15.4448C29.8368 15.4378 30.0494 15.3643 30.2281 15.2334C30.4069 15.1026 30.5437 14.9204 30.6213 14.7099C30.6989 14.4994 30.7138 14.27 30.6641 14.0508C30.6144 13.8316 30.5024 13.6325 30.3421 13.4785C29.8995 13.0482 29.196 13.073 28.7744 13.5285ZM27.677 26.4989C27.5923 26.592 27.5469 26.7157 27.5507 26.843C27.5546 26.9703 27.6074 27.0909 27.6976 27.1785C27.7425 27.2216 27.7953 27.2551 27.8529 27.2772C27.9105 27.2993 27.9718 27.3095 28.0333 27.3072C28.0948 27.3049 28.1552 27.2901 28.2111 27.2638C28.267 27.2375 28.3173 27.2001 28.359 27.1538C28.4016 27.1085 28.435 27.055 28.4572 26.9964C28.4793 26.9377 28.4898 26.8751 28.4879 26.8122C28.486 26.7494 28.4719 26.6875 28.4463 26.6304C28.4207 26.5732 28.3842 26.5219 28.339 26.4794C28.2945 26.4356 28.242 26.4014 28.1845 26.3787C28.127 26.3559 28.0656 26.3451 28.004 26.347C27.9424 26.3488 27.8818 26.3631 27.8256 26.3892C27.7695 26.4153 27.719 26.4526 27.677 26.4989ZM14.1328 28.179C14.3615 27.9259 14.4834 27.5906 14.472 27.246C14.4606 26.9014 14.3168 26.5753 14.072 26.3386C13.8271 26.102 13.5009 25.974 13.1644 25.9824C12.8279 25.9908 12.5082 26.135 12.2749 26.3837C12.0543 26.6381 11.939 26.9706 11.9537 27.3106C11.9683 27.6506 12.1117 27.9714 12.3534 28.2049C12.595 28.4384 12.916 28.5664 13.2482 28.5615C13.5804 28.5567 13.8977 28.4195 14.1328 28.179ZM11.3701 15.3217C11.4269 15.2601 11.4712 15.1877 11.5006 15.1085C11.53 15.0293 11.5439 14.945 11.5415 14.8603C11.5391 14.7756 11.5205 14.6923 11.4866 14.615C11.4527 14.5377 11.4044 14.468 11.3442 14.4099C11.2841 14.3517 11.2133 14.3063 11.136 14.2762C11.0587 14.2461 10.9764 14.2318 10.8937 14.2343C10.8111 14.2368 10.7297 14.2559 10.6543 14.2906C10.5788 14.3252 10.5108 14.3748 10.454 14.4364C10.2127 14.6942 10.2271 15.1008 10.4823 15.347C10.7324 15.589 11.1298 15.579 11.3701 15.3217ZM10.5608 18.652C10.7015 18.4979 10.777 18.2931 10.7711 18.0822C10.7651 17.8713 10.6781 17.6714 10.529 17.5258C10.3781 17.3873 10.1804 17.3147 9.97796 17.3233C9.77554 17.332 9.58441 17.4212 9.44526 17.5721C9.30611 17.7229 9.22993 17.9234 9.23295 18.1309C9.23597 18.3384 9.31795 18.5366 9.46143 18.6831C9.61159 18.8276 9.81143 18.9054 10.0174 18.8996C10.2233 18.8938 10.4187 18.8048 10.5608 18.652ZM10.8099 22.1559C10.9897 21.9603 11.0863 21.6995 11.0785 21.4309C11.0707 21.1623 10.9592 20.9079 10.7683 20.7236C10.5773 20.5399 10.3231 20.4415 10.0613 20.4497C9.79949 20.458 9.55161 20.5724 9.37208 20.7677C9.19328 20.9634 9.09743 21.2236 9.10551 21.4915C9.1136 21.7593 9.22496 22.013 9.41522 22.197C9.8137 22.5825 10.4371 22.562 10.8099 22.1559ZM12.0023 25.4058C12.2039 25.1862 12.3123 24.8936 12.3037 24.5923C12.2952 24.291 12.1703 24.0054 11.9566 23.7982C11.8507 23.6958 11.7261 23.6158 11.59 23.5629C11.4539 23.5099 11.309 23.485 11.1634 23.4896C11.0179 23.4942 10.8747 23.5282 10.742 23.5897C10.6094 23.6511 10.4899 23.7388 10.3904 23.8477C10.2899 23.9559 10.2113 24.0834 10.1591 24.2228C10.1068 24.3622 10.082 24.5108 10.0859 24.6601C10.0898 24.8094 10.1224 24.9564 10.1819 25.0928C10.2414 25.2291 10.3265 25.3521 10.4325 25.4547C10.6477 25.66 10.9333 25.77 11.2272 25.7608C11.5211 25.7516 11.7996 25.6241 12.0023 25.4058ZM24.994 29.3531C25.0541 29.4113 25.1248 29.4568 25.2021 29.4869C25.2793 29.517 25.3617 29.5312 25.4443 29.5286C25.527 29.526 25.6083 29.5067 25.6837 29.4718C25.759 29.4369 25.8269 29.3871 25.8834 29.3252C25.9401 29.2638 25.9843 29.1915 26.0137 29.1126C26.043 29.0336 26.0568 28.9494 26.0543 28.8649C26.0517 28.7805 26.0329 28.6973 25.9989 28.6203C25.9649 28.5433 25.9164 28.474 25.8561 28.4162C25.7963 28.358 25.7257 28.3126 25.6487 28.2824C25.5716 28.2522 25.4894 28.2379 25.4069 28.2403C25.3244 28.2428 25.2432 28.2619 25.1679 28.2966C25.0926 28.3313 25.0248 28.3809 24.9683 28.4425C24.8539 28.5668 24.7923 28.7325 24.7971 28.9033C24.802 29.074 24.8728 29.2358 24.994 29.3531ZM21.8056 30.594C22.1188 30.8965 22.6098 30.8765 22.904 30.5588C22.9741 30.483 23.0289 30.3939 23.0652 30.2964C23.1016 30.1989 23.1188 30.095 23.1158 29.9907C23.1128 29.8864 23.0898 29.7837 23.048 29.6886C23.0062 29.5934 22.9464 29.5076 22.8722 29.4362C22.7215 29.2916 22.5211 29.214 22.3147 29.2205C22.1083 29.227 21.9129 29.3171 21.7712 29.4709C21.6311 29.6249 21.5561 29.8293 21.5625 30.0397C21.569 30.2501 21.6564 30.4494 21.8056 30.594ZM18.3836 30.847C18.7841 31.2337 19.4045 31.2147 19.7778 30.8086C19.867 30.7123 19.9367 30.599 19.9831 30.475C20.0294 30.351 20.0514 30.2189 20.0478 30.0862C20.0441 29.9536 20.015 29.8229 19.9619 29.7018C19.9089 29.5807 19.8331 29.4715 19.7387 29.3805C19.5479 29.1966 19.2937 29.0976 19.0318 29.1051C18.7699 29.1126 18.5215 29.226 18.341 29.4204C18.2522 29.5169 18.1828 29.6303 18.1369 29.7543C18.091 29.8782 18.0694 30.0103 18.0733 30.1428C18.0773 30.2753 18.1067 30.4057 18.16 30.5266C18.2132 30.6474 18.2892 30.7563 18.3836 30.847ZM15.1547 30.0033C15.2604 30.1057 15.3849 30.1858 15.5209 30.2389C15.6569 30.292 15.8019 30.3171 15.9474 30.3127C16.0929 30.3083 16.2361 30.2745 16.3688 30.2133C16.5016 30.1521 16.6212 30.0646 16.7209 29.9559C16.8206 29.8472 16.8985 29.7195 16.9501 29.5799C17.0017 29.4404 17.0259 29.2918 17.0214 29.1427C17.0169 28.9936 16.9838 28.8468 16.924 28.7108C16.8641 28.5748 16.7787 28.4522 16.6726 28.35C16.5665 28.2478 16.4418 28.168 16.3056 28.1151C16.1693 28.0623 16.0243 28.0375 15.8787 28.0421C15.7332 28.0467 15.5899 28.0806 15.4571 28.1419C15.3243 28.2032 15.2046 28.2907 15.1049 28.3994C15.0051 28.508 14.9273 28.6356 14.8758 28.775C14.8243 28.9145 14.8002 29.0629 14.8049 29.2119C14.8095 29.3609 14.8428 29.5075 14.9028 29.6433C14.9628 29.7791 15.0484 29.9014 15.1547 30.0033Z" fill="white"/>
<path id="Vector_5" d="M33.6835 15.3187C33.3067 15.4846 32.881 15.4905 32.5 15.3351C32.119 15.1796 31.8138 14.8755 31.6515 14.4897C31.571 14.2987 31.528 14.0932 31.5251 13.8852C31.5222 13.6771 31.5595 13.4705 31.6346 13.2772C31.7098 13.0839 31.8215 12.9076 31.9633 12.7586C32.105 12.6096 32.2741 12.4907 32.4608 12.4087C32.8357 12.253 33.2552 12.254 33.6294 12.4113C34.0036 12.5687 34.3027 12.87 34.4626 13.2506C34.6226 13.6313 34.6305 14.0609 34.4849 14.4475C34.3392 14.8341 34.0515 15.1468 33.6835 15.3187ZM22.8285 5.23944C22.8069 5.12676 22.7638 5.01956 22.7017 4.92401C22.6396 4.82846 22.5596 4.74644 22.4664 4.68269C22.3731 4.61893 22.2685 4.5747 22.1586 4.55252C22.0486 4.53035 21.9354 4.53068 21.8256 4.55349C21.7155 4.57543 21.6108 4.61947 21.5174 4.68309C21.424 4.74671 21.3439 4.82863 21.2816 4.92414C21.2193 5.01965 21.1761 5.12686 21.1544 5.23957C21.1328 5.35228 21.1331 5.46826 21.1555 5.58083C21.2062 5.80143 21.3385 5.99325 21.5246 6.11583C21.7107 6.23841 21.9359 6.28218 22.1529 6.2379C22.3699 6.19363 22.5616 6.06477 22.6876 5.8785C22.8137 5.69223 22.8642 5.4631 22.8285 5.23944ZM26.4903 6.05531C26.457 5.92051 26.398 5.79377 26.3168 5.68238C26.2355 5.57099 26.1336 5.47714 26.0168 5.40622C25.9001 5.3353 25.7708 5.2887 25.6364 5.26911C25.502 5.24951 25.3652 5.2573 25.2337 5.29204C25.102 5.32597 24.9781 5.38626 24.8692 5.46943C24.7604 5.55259 24.6686 5.657 24.5993 5.77663C24.5299 5.89627 24.4843 6.02877 24.4652 6.16651C24.446 6.30425 24.4536 6.44452 24.4876 6.57924C24.5212 6.71394 24.5803 6.84055 24.6617 6.95184C24.743 7.06312 24.845 7.15691 24.9617 7.22783C25.0784 7.29876 25.2077 7.34543 25.342 7.3652C25.4763 7.38497 25.6132 7.37744 25.7447 7.34303C25.8762 7.30863 25.9998 7.24804 26.1084 7.1647C26.217 7.08137 26.3086 6.97694 26.3778 6.85736C26.4471 6.73778 26.4926 6.60541 26.5119 6.46779C26.5312 6.33018 26.5239 6.19001 26.4903 6.05531ZM29.8666 7.72441C29.8166 7.55881 29.7351 7.40497 29.6268 7.27173C29.5186 7.1385 29.3857 7.02849 29.2358 6.94803C29.0859 6.86757 28.922 6.81824 28.7535 6.80289C28.5849 6.78753 28.415 6.80645 28.2537 6.85856C28.092 6.90988 27.9417 6.99339 27.8116 7.1043C27.6815 7.21521 27.574 7.35134 27.4953 7.50489C27.4167 7.65843 27.3684 7.82638 27.3532 7.99909C27.338 8.1718 27.3563 8.34588 27.4069 8.51135C27.5156 8.83684 27.744 9.10602 28.0436 9.26157C28.3431 9.41713 28.6901 9.44679 29.0106 9.34423C29.3312 9.24168 29.6 9.015 29.7599 8.71247C29.9197 8.40993 29.958 8.05542 29.8666 7.72441ZM32.5594 10.1831C32.4948 10.0038 32.3964 9.83926 32.2697 9.699C32.1429 9.55873 31.9904 9.44545 31.8209 9.36566C31.6514 9.28586 31.4681 9.24111 31.2817 9.23398C31.0953 9.22684 30.9093 9.25745 30.7344 9.32407C30.5591 9.38987 30.3982 9.49053 30.261 9.62024C30.1238 9.74995 30.013 9.90617 29.9349 10.0799C29.8569 10.2536 29.8131 10.4415 29.8061 10.6326C29.7991 10.8237 29.8291 11.0144 29.8943 11.1936C30.0251 11.5556 30.291 11.8496 30.6334 12.0108C30.9758 12.1721 31.3667 12.1874 31.7201 12.0534C32.0735 11.9194 32.3605 11.647 32.5179 11.2963C32.6753 10.9455 32.6902 10.5451 32.5594 10.1831ZM15.4884 6.22259C15.4561 6.14578 15.4093 6.07627 15.3508 6.01802C15.2922 5.95977 15.223 5.91394 15.1471 5.88315C15.0712 5.85236 14.9901 5.83723 14.9085 5.8386C14.8268 5.83998 14.7463 5.85785 14.6714 5.89119C14.5204 5.95794 14.4014 6.08343 14.3407 6.24004C14.28 6.39664 14.2825 6.57154 14.3476 6.72626C14.4128 6.88098 14.5353 7.00284 14.6882 7.06504C14.8411 7.12724 15.0118 7.12468 15.1628 7.05793C15.4776 6.91905 15.6245 6.54452 15.4884 6.22259ZM30.9768 27.2075C30.7977 27.344 30.6779 27.5468 30.6429 27.7726C30.608 27.9984 30.6608 28.2292 30.7899 28.4157C30.919 28.6021 31.1143 28.7294 31.3339 28.7702C31.5534 28.8111 31.7799 28.7622 31.9648 28.6341C32.0562 28.5677 32.134 28.4834 32.1936 28.3861C32.2532 28.2888 32.2935 28.1804 32.3121 28.0672C32.3308 27.9539 32.3274 27.838 32.3023 27.726C32.2771 27.6141 32.2307 27.5083 32.1655 27.4148C32.1008 27.3212 32.0187 27.2416 31.9239 27.1805C31.8291 27.1194 31.7235 27.0781 31.6131 27.0589C31.5027 27.0396 31.3897 27.0428 31.2805 27.0683C31.1713 27.0939 31.0681 27.1412 30.9768 27.2075ZM32.6734 23.7978C32.5559 23.8707 32.4537 23.9669 32.3729 24.0807C32.2921 24.1945 32.2343 24.3237 32.2028 24.4607C32.1713 24.5977 32.1668 24.7397 32.1895 24.8786C32.2122 25.0174 32.2617 25.1501 32.3351 25.2691C32.4084 25.3881 32.5042 25.4909 32.6168 25.5715C32.7295 25.6521 32.8566 25.7089 32.9909 25.7386C33.1252 25.7683 33.264 25.7702 33.399 25.7444C33.534 25.7185 33.6627 25.6653 33.7774 25.5879C34.0036 25.4353 34.1623 25.198 34.2194 24.9268C34.2765 24.6557 34.2275 24.3724 34.0828 24.1379C33.9382 23.9034 33.7095 23.7364 33.446 23.6728C33.1824 23.6092 32.905 23.6541 32.6734 23.7978ZM33.476 19.9609C33.1781 20.1328 32.9589 20.4186 32.8666 20.7558C32.7743 21.093 32.8163 21.454 32.9836 21.7594C33.0664 21.9105 33.1776 22.0433 33.3106 22.1502C33.4436 22.2572 33.596 22.3362 33.7589 22.3828C33.9217 22.4293 34.092 22.4425 34.2599 22.4216C34.4278 22.4007 34.59 22.346 34.7372 22.2607C34.885 22.1764 35.015 22.0629 35.1199 21.9269C35.2247 21.7908 35.3023 21.6349 35.3481 21.4681C35.3939 21.3012 35.4071 21.1268 35.3868 20.9547C35.3666 20.7826 35.3133 20.6163 35.2302 20.4654C35.1475 20.3141 35.0364 20.1811 34.9035 20.0738C34.7705 19.9666 34.6182 19.8873 34.4552 19.8404C34.2923 19.7936 34.1219 19.7801 33.9539 19.8008C33.7859 19.8214 33.6235 19.8759 33.476 19.9609ZM33.4272 16.1136C33.0903 16.285 32.8335 16.5864 32.7132 16.9516C32.5928 17.3167 32.6188 17.7159 32.7854 18.0614C32.8678 18.2331 32.9826 18.3864 33.1231 18.5125C33.2636 18.6386 33.4271 18.735 33.6041 18.7962C33.7811 18.8573 33.9681 18.882 34.1545 18.8689C34.3408 18.8557 34.5228 18.805 34.6899 18.7195C34.8573 18.6351 35.0068 18.5177 35.1297 18.374C35.2526 18.2302 35.3466 18.063 35.4063 17.882C35.4659 17.7009 35.4901 17.5096 35.4773 17.3189C35.4645 17.1283 35.4151 16.9421 35.3318 16.7711C35.1641 16.4254 34.8694 16.162 34.5123 16.0387C34.1552 15.9155 33.765 15.9424 33.4272 16.1136ZM25.6122 31.8782C25.5374 31.9112 25.4696 31.9591 25.4129 32.0189C25.3561 32.0788 25.3114 32.1495 25.2813 32.2271C25.2512 32.3047 25.2363 32.3875 25.2375 32.471C25.2387 32.5545 25.2559 32.6369 25.2882 32.7135C25.3533 32.8683 25.4758 32.9902 25.6288 33.0525C25.7045 33.0833 25.7854 33.0985 25.8669 33.0973C25.9483 33.0961 26.0288 33.0785 26.1036 33.0454C26.4184 32.9066 26.5652 32.5326 26.4297 32.209C26.364 32.0542 26.2411 31.9323 26.0878 31.8703C25.9345 31.8083 25.7634 31.8111 25.6122 31.8782ZM8.31574 26.5258C8.69192 26.3588 8.98798 26.0457 9.13886 25.6551C9.28975 25.2646 9.28311 24.8287 9.1204 24.4433C9.04035 24.2524 8.92434 24.0797 8.77901 23.9348C8.63368 23.79 8.46189 23.676 8.27348 23.5993C8.08507 23.5225 7.88373 23.4847 7.681 23.4878C7.47827 23.4909 7.27814 23.5349 7.09205 23.6174C6.90535 23.6994 6.73627 23.8183 6.59451 23.9673C6.45276 24.1163 6.34111 24.2926 6.26598 24.4859C6.19084 24.6792 6.15369 24.8858 6.15666 25.0939C6.15963 25.302 6.20266 25.5074 6.28328 25.6984C6.44594 26.084 6.75133 26.3877 7.1324 26.5428C7.51347 26.698 7.93907 26.6918 8.31574 26.5258ZM9.79772 11.7275C9.88907 11.6613 9.96681 11.5773 10.0265 11.4803C10.0861 11.3834 10.1266 11.2753 10.1455 11.1623C10.1643 11.0493 10.1613 10.9336 10.1365 10.8218C10.1118 10.71 10.0657 10.6044 10.0011 10.5108C9.93675 10.4168 9.85489 10.3367 9.7602 10.2752C9.66552 10.2138 9.55989 10.1721 9.44942 10.1527C9.33894 10.1333 9.22581 10.1365 9.11654 10.1621C9.00728 10.1877 8.90405 10.2353 8.81281 10.302C8.72093 10.368 8.64273 10.4521 8.58272 10.5493C8.52271 10.6465 8.48208 10.7549 8.46318 10.8682C8.44427 10.9816 8.44746 11.0977 8.47257 11.2098C8.49768 11.3218 8.5442 11.4277 8.60946 11.5213C8.74055 11.7098 8.93925 11.8373 9.16199 11.876C9.38473 11.9146 9.61334 11.8612 9.79772 11.7275ZM8.10263 15.1367C8.21757 15.0623 8.31705 14.9653 8.3954 14.8515C8.47375 14.7376 8.52941 14.6091 8.55922 14.4731C8.58903 14.3372 8.59239 14.1966 8.56911 14.0594C8.54584 13.9221 8.49638 13.7909 8.42357 13.6733C8.27683 13.4362 8.04415 13.2685 7.77672 13.2072C7.50929 13.1458 7.22902 13.1958 6.99757 13.3461C6.76611 13.4964 6.60243 13.7348 6.54253 14.0087C6.48263 14.2827 6.53142 14.5698 6.67816 14.8069C6.82437 15.0441 7.05658 15.2122 7.32372 15.274C7.59086 15.3359 7.87104 15.2865 8.10263 15.1367ZM7.29745 18.9741C7.44998 18.8921 7.58491 18.7795 7.69424 18.6431C7.80357 18.5068 7.88508 18.3493 7.93397 18.1801C7.98285 18.0108 7.99811 17.8333 7.97884 17.6579C7.95957 17.4826 7.90616 17.3129 7.82178 17.1591C7.73739 17.0052 7.62374 16.8703 7.48754 16.7622C7.35135 16.6541 7.19538 16.5751 7.02887 16.5299C6.86235 16.4846 6.68866 16.474 6.51809 16.4988C6.34751 16.5235 6.1835 16.583 6.03577 16.6738C5.73919 16.8458 5.52127 17.1312 5.42976 17.4676C5.33825 17.8039 5.38061 18.1636 5.54755 18.468C5.7145 18.7724 5.99242 18.9966 6.32043 19.0914C6.64843 19.1863 6.99976 19.1441 7.29745 18.9741ZM7.34726 22.8225C7.68487 22.6511 7.94216 22.3493 8.06254 21.9835C8.18291 21.6177 8.15651 21.2179 7.98915 20.872C7.90674 20.7002 7.79195 20.5468 7.65141 20.4206C7.51086 20.2945 7.34732 20.1981 7.17023 20.1369C6.99314 20.0758 6.80599 20.0512 6.61957 20.0645C6.43315 20.0778 6.25114 20.1288 6.08404 20.2145C5.91684 20.2991 5.76756 20.4167 5.64475 20.5605C5.52193 20.7043 5.42798 20.8715 5.36828 21.0525C5.30857 21.2335 5.28427 21.4247 5.29677 21.6154C5.30927 21.806 5.35832 21.9922 5.44113 22.1634C5.60875 22.5096 5.90365 22.7735 6.26105 22.897C6.61846 23.0206 7.00913 22.9938 7.34726 22.8225ZM17.946 33.6977C17.968 33.8105 18.0113 33.9177 18.0737 34.0132C18.1361 34.1088 18.2162 34.1908 18.3095 34.2547C18.4028 34.3185 18.5075 34.3629 18.6176 34.3853C18.7276 34.4077 18.8409 34.4077 18.951 34.3852C19.173 34.3389 19.368 34.2044 19.4934 34.011C19.6187 33.8176 19.6641 33.5813 19.6196 33.3537C19.5745 33.1267 19.4435 32.9273 19.2553 32.799C19.0671 32.6706 18.8369 32.6238 18.6151 32.6688C18.3934 32.7146 18.1984 32.8487 18.0729 33.0416C17.9475 33.2344 17.9019 33.4704 17.946 33.6977ZM14.2863 32.8797C14.3195 33.0146 14.3783 33.1414 14.4595 33.2528C14.5407 33.3643 14.6425 33.4582 14.7593 33.5293C14.876 33.6003 15.0052 33.647 15.1396 33.6667C15.274 33.6864 15.4108 33.6787 15.5423 33.6441C15.6737 33.6097 15.7973 33.5491 15.9058 33.4658C16.0144 33.3825 16.1059 33.2781 16.1751 33.1585C16.2443 33.039 16.2898 32.9067 16.3091 32.7691C16.3284 32.6316 16.321 32.4915 16.2874 32.3569C16.2538 32.2222 16.1947 32.0957 16.1134 31.9845C16.032 31.8732 15.9301 31.7795 15.8135 31.7086C15.6968 31.6378 15.5676 31.5911 15.4333 31.5714C15.299 31.5516 15.1623 31.5592 15.0309 31.5936C14.8995 31.628 14.7761 31.6885 14.6676 31.7717C14.5591 31.855 14.4677 31.9593 14.3985 32.0787C14.3294 32.1981 14.2839 32.3303 14.2646 32.4678C14.2454 32.6052 14.2527 32.7452 14.2863 32.8797ZM10.9089 31.2101C10.9586 31.3758 11.0398 31.5298 11.1479 31.6632C11.256 31.7966 11.3888 31.9067 11.5387 31.9872C11.6886 32.0677 11.8525 32.117 12.0211 32.1322C12.1897 32.1475 12.3595 32.1283 12.5208 32.076C12.6826 32.0249 12.8329 31.9417 12.9631 31.8309C13.0933 31.7202 13.2009 31.5843 13.2797 31.4308C13.3585 31.2774 13.4069 31.1095 13.4221 30.9369C13.4374 30.7642 13.4192 30.5902 13.3686 30.4248C13.2663 30.0906 13.0387 29.8117 12.7359 29.6492C12.433 29.4868 12.0795 29.4541 11.7531 29.5584C11.5916 29.6097 11.4416 29.6933 11.3117 29.8042C11.1818 29.9151 11.0746 30.0511 10.9961 30.2046C10.9177 30.3581 10.8696 30.5259 10.8546 30.6985C10.8397 30.871 10.8581 31.0449 10.9089 31.2101ZM8.21509 28.7499C8.27932 28.9294 8.37758 29.0942 8.50423 29.2347C8.63087 29.3752 8.78339 29.4887 8.95301 29.5686C9.12264 29.6485 9.30601 29.6932 9.49257 29.7002C9.67914 29.7072 9.86522 29.6764 10.0401 29.6094C10.386 29.4702 10.6649 29.1976 10.8169 28.8501C10.9688 28.5027 10.9818 28.108 10.853 27.7509C10.7241 27.3937 10.4638 27.1026 10.1278 26.9398C9.79179 26.7771 9.40689 26.7557 9.0557 26.8804C8.70249 27.0144 8.41563 27.2866 8.25804 27.6371C8.10045 27.9875 8.085 28.3877 8.21509 28.7499ZM28.5402 30.0329C28.4079 30.1473 28.3244 30.31 28.3071 30.4865C28.2899 30.6629 28.3404 30.8393 28.4478 30.9784C28.5553 31.1174 28.7114 31.2081 28.883 31.2313C29.0547 31.2546 29.2284 31.2085 29.3674 31.1028C29.4392 31.0483 29.4995 30.9796 29.5448 30.9007C29.5901 30.8219 29.6194 30.7345 29.6311 30.6439C29.6428 30.5532 29.6366 30.461 29.6129 30.3728C29.5891 30.2846 29.5483 30.2022 29.4928 30.1305C29.4374 30.0588 29.3684 29.9992 29.2901 29.9553C29.2117 29.9114 29.1256 29.8841 29.0367 29.875C28.9478 29.8659 28.8581 29.8752 28.7728 29.9023C28.6875 29.9294 28.6084 29.9738 28.5402 30.0329ZM22.2913 32.7924C22.1166 32.8194 21.9594 32.9162 21.8542 33.0616C21.7489 33.207 21.7041 33.3892 21.7296 33.5683C21.7422 33.657 21.7718 33.7423 21.8166 33.8193C21.8614 33.8962 21.9207 33.9634 21.9909 34.0169C22.0611 34.0704 22.1409 34.1092 22.2258 34.1311C22.3106 34.1529 22.3989 34.1574 22.4854 34.1443C22.5722 34.1316 22.6556 34.1014 22.731 34.0556C22.8063 34.0097 22.8721 33.9491 22.9245 33.8771C22.9769 33.8052 23.015 33.7234 23.0365 33.6364C23.058 33.5493 23.0625 33.4588 23.0498 33.37C23.0371 33.281 23.0074 33.1955 22.9624 33.1183C22.9174 33.0411 22.858 32.9737 22.7875 32.9201C22.7171 32.8664 22.637 32.8275 22.5518 32.8056C22.4667 32.7837 22.3782 32.7792 22.2913 32.7924ZM19.0475 5.36726C19.0348 5.27838 19.005 5.19295 18.96 5.11588C18.9149 5.03881 18.8554 4.97161 18.785 4.91814C18.7145 4.86467 18.6344 4.82598 18.5493 4.8043C18.4642 4.78262 18.3758 4.77836 18.2891 4.79178C18.1143 4.81815 17.9568 4.91457 17.8514 5.05983C17.746 5.2051 17.7013 5.3873 17.727 5.56636C17.7528 5.74543 17.8469 5.90668 17.9887 6.01465C18.1305 6.12263 18.3084 6.16847 18.4832 6.1421C18.6583 6.11595 18.8161 6.01965 18.9219 5.87435C19.0277 5.72906 19.0729 5.54666 19.0475 5.36726ZM12.3442 7.94324C12.2341 7.80137 12.0737 7.70994 11.8979 7.68894C11.7222 7.66794 11.5455 7.71909 11.4065 7.83119C11.303 7.9151 11.226 8.02858 11.1854 8.15728C11.1449 8.28599 11.1424 8.42413 11.1785 8.55424C11.2145 8.68436 11.2874 8.8006 11.388 8.88827C11.4885 8.97594 11.6122 9.03109 11.7433 9.04676C11.8745 9.06244 12.0072 9.03792 12.1247 8.97631C12.2423 8.9147 12.3394 8.81877 12.4037 8.70065C12.468 8.58253 12.4967 8.44752 12.4861 8.3127C12.4755 8.17788 12.4261 8.04931 12.3442 7.94324Z" fill="white"/>
<path id="Vector_6" d="M38.0779 21.4952C37.5528 21.4945 37.0494 21.2802 36.6785 20.8995C36.3076 20.5187 36.0994 20.0026 36.0998 19.4647C36.0994 19.1983 36.1504 18.9344 36.2499 18.6883C36.3493 18.4421 36.4952 18.2185 36.6792 18.0303C36.8633 17.842 37.0818 17.6929 37.3223 17.5914C37.5627 17.49 37.8204 17.4381 38.0804 17.439C38.3405 17.4385 38.5981 17.4906 38.8385 17.5924C39.0788 17.6941 39.2972 17.8435 39.4811 18.0319C39.665 18.2203 39.8107 18.444 39.91 18.6903C40.0092 18.9365 40.06 19.2004 40.0595 19.4668C40.0592 20.005 39.8503 20.521 39.4787 20.9013C39.1071 21.2817 38.6032 21.4953 38.0779 21.4952ZM30.3044 4.00154C30.3346 3.85787 30.3368 3.70949 30.3108 3.56496C30.2848 3.42042 30.2312 3.28257 30.153 3.15933C30.0748 3.0361 29.9737 2.9299 29.8553 2.84686C29.7369 2.76381 29.6037 2.70555 29.4633 2.67542C29.3231 2.64416 29.1782 2.64161 29.037 2.66791C28.8958 2.69421 28.7611 2.74885 28.6406 2.82868C28.5201 2.90852 28.4162 3.01197 28.3348 3.13309C28.2535 3.25421 28.1964 3.3906 28.1667 3.53443C28.1062 3.82482 28.1608 4.12793 28.3185 4.37707C28.4762 4.62621 28.7241 4.80097 29.0075 4.86292C29.291 4.92486 29.5869 4.86891 29.8301 4.70737C30.0733 4.54583 30.2439 4.29194 30.3044 4.00154ZM34.206 6.86315C34.2335 6.68735 34.2268 6.50773 34.1864 6.33458C34.1459 6.16143 34.0725 5.99816 33.9704 5.85411C33.8683 5.71005 33.7394 5.58806 33.5912 5.49511C33.443 5.40215 33.2783 5.34007 33.1066 5.31241C32.7636 5.26483 32.416 5.35668 32.1382 5.56829C31.8605 5.77991 31.6746 6.09449 31.6204 6.44472C31.5661 6.79495 31.6479 7.15301 31.8481 7.44228C32.0483 7.73155 32.3511 7.92906 32.6917 7.99253C33.0386 8.04795 33.3929 7.96019 33.6768 7.74848C33.9606 7.53677 34.151 7.21839 34.206 6.86315ZM39.299 14.872C39.3118 14.6275 39.2774 14.3829 39.1977 14.1521C39.1181 13.9213 38.9947 13.7088 38.8348 13.5269C38.6748 13.3451 38.4814 13.1973 38.2656 13.0921C38.0498 12.987 37.8159 12.9264 37.5772 12.9141C37.3385 12.9006 37.0996 12.9355 36.8741 13.0169C36.6486 13.0983 36.441 13.2245 36.2633 13.3883C36.0856 13.5521 35.9412 13.7502 35.8384 13.9714C35.7356 14.1925 35.6765 14.4322 35.6644 14.6768C35.6497 14.9226 35.6826 15.1689 35.7613 15.4015C35.84 15.6341 35.963 15.8485 36.123 16.0322C36.283 16.2159 36.477 16.3654 36.6937 16.4719C36.9104 16.5784 37.1456 16.6398 37.3856 16.6527C37.6256 16.6656 37.8658 16.6297 38.0922 16.547C38.3185 16.4642 38.5267 16.3364 38.7046 16.1708C38.8825 16.0053 39.0266 15.8053 39.1286 15.5823C39.2307 15.3594 39.2886 15.1179 39.299 14.872ZM21.184 1.34352C21.184 0.891656 20.8271 0.530273 20.3876 0.530273C20.1818 0.537853 19.987 0.626907 19.844 0.77869C19.7011 0.930473 19.6212 1.13314 19.6212 1.34404C19.6212 1.55494 19.7011 1.75761 19.844 1.90939C19.987 2.06118 20.1818 2.15023 20.3876 2.15781C20.8271 2.15781 21.184 1.79432 21.184 1.34352ZM29.0088 34.071C28.8683 34.1016 28.7351 34.1602 28.6167 34.2436C28.4983 34.3269 28.3972 34.4334 28.3189 34.5568C28.161 34.806 28.1061 35.1093 28.1664 35.4C28.2268 35.6907 28.3973 35.9449 28.6406 36.1067C28.884 36.2686 29.18 36.3248 29.4638 36.263C29.7476 36.2011 29.9957 36.0264 30.1537 35.7772C30.3117 35.5279 30.3665 35.2246 30.3062 34.9339C30.2459 34.6433 30.0753 34.389 29.832 34.2272C29.5887 34.0654 29.2926 34.0092 29.0088 34.071ZM32.6917 30.9432C32.5187 30.9694 32.3524 31.0304 32.2025 31.1228C32.0526 31.2152 31.9221 31.3371 31.8185 31.4814C31.7148 31.6258 31.6402 31.7898 31.5988 31.9639C31.5574 32.138 31.5501 32.3187 31.5773 32.4957C31.6045 32.6727 31.6657 32.8425 31.7573 32.9951C31.8489 33.1478 31.9692 33.2803 32.1111 33.385C32.253 33.4898 32.4138 33.5647 32.5841 33.6054C32.7545 33.6461 32.931 33.6519 33.1035 33.6223C33.4476 33.5633 33.7551 33.3675 33.959 33.0776C34.163 32.7876 34.247 32.4269 34.1927 32.0738C34.1384 31.7208 33.9503 31.404 33.6692 31.1923C33.3882 30.9805 33.0368 30.891 32.6917 30.9432ZM35.536 26.8475C35.1009 26.8944 34.7018 27.1164 34.4264 27.4648C34.1511 27.8131 34.0221 28.2592 34.0679 28.705C34.1137 29.1507 34.3304 29.5596 34.6704 29.8416C35.0105 30.1236 35.446 30.2557 35.8811 30.2089C36.0967 30.1861 36.3059 30.1199 36.4965 30.0142C36.6871 29.9084 36.8555 29.7652 36.9919 29.5926C37.1284 29.42 37.2302 29.2215 37.2916 29.0086C37.353 28.7956 37.3728 28.5723 37.3497 28.3515C37.3038 27.9057 37.0869 27.4969 36.7468 27.2149C36.4067 26.9328 35.9712 26.8007 35.536 26.8475ZM37.3836 22.2969C36.9023 22.3238 36.451 22.5451 36.1287 22.9123C35.8065 23.2795 35.6395 23.7627 35.6644 24.2558C35.6764 24.5004 35.7355 24.7402 35.8382 24.9613C35.941 25.1825 36.0854 25.3806 36.2631 25.5444C36.4409 25.7082 36.6485 25.8344 36.874 25.9158C37.0995 25.9972 37.3385 26.0321 37.5772 26.0185C37.8158 26.0061 38.0497 25.9455 38.2655 25.8403C38.4812 25.7351 38.6746 25.5873 38.8345 25.4055C38.9944 25.2236 39.1176 25.0112 39.1973 24.7804C39.2769 24.5496 39.3113 24.305 39.2985 24.0606C39.2724 23.5668 39.0561 23.1038 38.6971 22.7731C38.3381 22.4425 37.8657 22.2712 37.3836 22.2969ZM20.3876 36.7764C20.1803 36.7818 19.9833 36.8699 19.8386 37.022C19.6939 37.174 19.6129 37.378 19.6129 37.5904C19.6129 37.8028 19.6939 38.0067 19.8386 38.1588C19.9833 38.3109 20.1803 38.399 20.3876 38.4044C20.5983 38.4044 20.8004 38.3187 20.9495 38.166C21.0985 38.0133 21.1822 37.8063 21.1822 37.5904C21.1822 37.3745 21.0985 37.1674 20.9495 37.0148C20.8004 36.8621 20.5983 36.7764 20.3876 36.7764ZM2.69622 21.4952C3.22111 21.4941 3.72412 21.2796 4.09479 20.8989C4.46546 20.5182 4.6735 20.0024 4.67323 19.4647C4.67363 19.1986 4.62277 18.9351 4.52357 18.6891C4.42437 18.4432 4.27877 18.2197 4.09511 18.0316C3.91145 17.8434 3.69335 17.6942 3.45331 17.5925C3.21326 17.4908 2.95599 17.4386 2.69622 17.439C2.43603 17.4386 2.17832 17.4908 1.93785 17.5926C1.69737 17.6944 1.47885 17.8438 1.2948 18.0322C1.11074 18.2206 0.964754 18.4443 0.865197 18.6906C0.76564 18.9369 0.714465 19.2008 0.7146 19.4673C0.715687 20.0052 0.924879 20.5206 1.29633 20.9008C1.66778 21.2809 2.17119 21.4946 2.69622 21.4952ZM11.7663 4.86213C12.0499 4.80039 12.298 4.62577 12.4559 4.37668C12.6138 4.12759 12.6687 3.82444 12.6084 3.5339C12.5788 3.3901 12.5216 3.25373 12.4403 3.1326C12.3591 3.01148 12.2552 2.90799 12.1348 2.82808C12.0144 2.74817 11.8797 2.6934 11.7386 2.66694C11.5975 2.64047 11.4526 2.64282 11.3124 2.67384C11.1721 2.70438 11.0391 2.76291 10.9209 2.84611C10.8027 2.9293 10.7017 3.03553 10.6236 3.15872C10.5455 3.28191 10.4918 3.41965 10.4657 3.56408C10.4395 3.70852 10.4414 3.85681 10.4712 4.00049C10.501 4.14418 10.5582 4.28044 10.6394 4.4015C10.7206 4.52257 10.8243 4.62606 10.9446 4.70607C11.0648 4.78608 11.1993 4.84104 11.3403 4.86782C11.4813 4.89459 11.626 4.89266 11.7663 4.86213ZM8.08445 7.99148C8.43156 7.93496 8.74258 7.73962 8.94919 7.44837C9.15581 7.15711 9.24114 6.79376 9.18644 6.43811C9.15926 6.26207 9.09845 6.09326 9.00749 5.94133C8.91652 5.7894 8.7972 5.65735 8.65634 5.55273C8.51548 5.44811 8.35586 5.37299 8.18662 5.33166C8.01737 5.29033 7.84183 5.28361 7.67005 5.31188C7.49841 5.3396 7.3338 5.40173 7.18563 5.49471C7.03746 5.58769 6.90866 5.7097 6.80658 5.85374C6.70451 5.99779 6.63117 6.16104 6.59077 6.33416C6.55037 6.50728 6.5437 6.68686 6.57115 6.86262C6.62572 7.21787 6.8158 7.53638 7.0996 7.74807C7.38339 7.95977 7.73765 8.04733 8.08445 7.99148ZM5.23808 12.0861C5.66545 12.0294 6.05424 11.8038 6.32141 11.4574C6.58858 11.1111 6.71296 10.6714 6.66798 10.2324C6.62299 9.79335 6.41222 9.38973 6.08066 9.10775C5.74911 8.82576 5.32306 8.68775 4.89352 8.72319C4.67778 8.74602 4.46856 8.81227 4.27788 8.91816C4.08721 9.02405 3.91883 9.16748 3.78241 9.34021C3.646 9.51294 3.54423 9.71158 3.48297 9.92471C3.4217 10.1378 3.40214 10.3613 3.4254 10.5822C3.44789 10.8029 3.51264 11.0169 3.61593 11.212C3.71923 11.4071 3.85906 11.5794 4.02741 11.7191C4.19576 11.8587 4.38934 11.963 4.59708 12.026C4.80482 12.089 5.02264 12.1094 5.23808 12.0861ZM3.39048 16.6363C3.87245 16.61 4.32454 16.3888 4.64739 16.0213C4.97024 15.6538 5.13745 15.17 5.11227 14.6763C5.10013 14.4314 5.04088 14.1915 4.93793 13.9702C4.83498 13.7489 4.69035 13.5507 4.51236 13.3868C4.33437 13.223 4.12653 13.0968 3.90078 13.0154C3.67503 12.9341 3.43582 12.8993 3.19689 12.913C2.95829 12.9257 2.72446 12.9864 2.50878 13.0917C2.2931 13.197 2.0998 13.3448 1.93994 13.5267C1.78007 13.7086 1.65678 13.921 1.57711 14.1517C1.49743 14.3825 1.46295 14.627 1.47562 14.8714C1.50123 15.3655 1.71732 15.829 2.0764 16.1599C2.43547 16.4909 2.90813 16.6622 3.39048 16.6363ZM10.4712 34.9326C10.4414 35.0764 10.4395 35.2248 10.4656 35.3694C10.4918 35.5139 10.5455 35.6517 10.6236 35.775C10.7018 35.8983 10.8029 36.0046 10.9211 36.0879C11.0394 36.1712 11.1725 36.2298 11.3129 36.2603C11.4532 36.2909 11.5981 36.2928 11.7392 36.2661C11.8803 36.2393 12.0149 36.1843 12.1352 36.1042C12.2556 36.0242 12.3594 35.9206 12.4406 35.7995C12.5219 35.6783 12.5791 35.542 12.609 35.3982C12.6689 35.1077 12.6139 34.8048 12.456 34.5558C12.2981 34.3069 12.0502 34.1323 11.7668 34.0705C11.4835 34.0095 11.188 34.0659 10.9452 34.2275C10.7024 34.3891 10.532 34.6426 10.4712 34.9326ZM6.57166 32.07C6.54393 32.2458 6.55039 32.4255 6.59067 32.5988C6.63095 32.772 6.70426 32.9354 6.80637 33.0796C6.90848 33.2237 7.0374 33.3458 7.18571 33.4387C7.33401 33.5317 7.49879 33.5937 7.67057 33.6212C7.92906 33.6634 8.19395 33.6261 8.43174 33.514C8.66952 33.4019 8.86952 33.2201 9.00644 32.9916C9.14335 32.7631 9.21103 32.4981 9.20092 32.2301C9.19081 31.9622 9.10336 31.7034 8.94963 31.4863C8.79589 31.2693 8.58279 31.1039 8.33726 31.011C8.09174 30.918 7.82483 30.9018 7.57028 30.9642C7.31573 31.0267 7.08499 31.1651 6.90724 31.3619C6.72948 31.5588 6.6127 31.8052 6.57166 32.07ZM3.4254 28.3525C3.40222 28.5732 3.42183 28.7965 3.48311 29.0094C3.5444 29.2224 3.64615 29.4208 3.78252 29.5934C3.91889 29.7659 4.0872 29.9092 4.27777 30.0149C4.46834 30.1206 4.67742 30.1867 4.89301 30.2094C5.10852 30.233 5.32646 30.2128 5.53434 30.15C5.74222 30.0872 5.93596 29.983 6.10444 29.8433C6.27293 29.7036 6.41286 29.5313 6.51621 29.3361C6.61956 29.141 6.6843 28.9268 6.70671 28.706C6.72934 28.4852 6.70929 28.262 6.64771 28.0491C6.58612 27.8362 6.48421 27.6379 6.34778 27.4653C6.21136 27.2928 6.0431 27.1495 5.85261 27.0436C5.66212 26.9377 5.45313 26.8712 5.23757 26.8481C5.0221 26.8247 4.80425 26.8451 4.59648 26.9081C4.38872 26.9711 4.19512 27.0754 4.02679 27.2152C3.85846 27.3549 3.71869 27.5273 3.61549 27.7225C3.5123 27.9176 3.4477 28.1317 3.4254 28.3525ZM1.47562 24.0601C1.46281 24.3045 1.49721 24.5491 1.57683 24.7799C1.65646 25.0107 1.77975 25.2231 1.93965 25.4049C2.09955 25.5868 2.29291 25.7346 2.50865 25.8398C2.72439 25.945 2.95827 26.0055 3.19689 26.018C3.43582 26.0319 3.67508 25.9973 3.90089 25.9161C4.12669 25.8349 4.33459 25.7087 4.51262 25.5449C4.69064 25.381 4.83527 25.1828 4.93819 24.9614C5.0411 24.7401 5.10027 24.5001 5.11227 24.2553C5.13704 23.7617 4.96965 23.2783 4.64686 22.911C4.32406 22.5438 3.87222 22.3227 3.39048 22.2963C2.90848 22.2711 2.43634 22.4425 2.07745 22.7731C1.71856 23.1037 1.50216 23.5665 1.47562 24.0601ZM24.7452 36.1283C24.5265 36.1886 24.3401 36.3352 24.2268 36.5361C24.1135 36.7369 24.0826 36.9756 24.1408 37.1998C24.1997 37.4237 24.343 37.6144 24.5391 37.7301C24.7353 37.8458 24.9682 37.877 25.1868 37.8168C25.2953 37.7875 25.3971 37.7365 25.4864 37.6668C25.5756 37.5971 25.6505 37.51 25.7068 37.4105C25.7631 37.3111 25.7997 37.2012 25.8144 37.0872C25.8292 36.9733 25.8218 36.8574 25.7927 36.7464C25.7338 36.5221 25.5903 36.3311 25.3939 36.2151C25.1974 36.0992 24.9641 36.068 24.7452 36.1283ZM16.0289 36.1283C15.8122 36.074 15.5833 36.1088 15.3913 36.2252C15.1993 36.3417 15.0595 36.5305 15.0017 36.7513C14.944 36.972 14.973 37.2072 15.0824 37.4064C15.1919 37.6055 15.3731 37.7529 15.5873 37.8168C15.6964 37.8494 15.8108 37.8593 15.9237 37.846C16.0366 37.8327 16.1457 37.7965 16.2448 37.7394C16.3438 37.6823 16.4307 37.6055 16.5004 37.5135C16.5701 37.4215 16.6211 37.3162 16.6505 37.2038C16.6799 37.0913 16.6871 36.974 16.6716 36.8586C16.6562 36.7433 16.6184 36.6323 16.5605 36.5321C16.5026 36.4319 16.4258 36.3446 16.3345 36.2753C16.2432 36.2059 16.1393 36.1559 16.0289 36.1283ZM25.7933 2.18779C25.8222 2.07671 25.8294 1.96088 25.8146 1.84693C25.7997 1.73297 25.7631 1.62314 25.7068 1.52371C25.6504 1.42427 25.5755 1.3372 25.4863 1.26747C25.3971 1.19773 25.2953 1.14671 25.1868 1.11732C24.9719 1.06841 24.7468 1.10641 24.5586 1.22339C24.3704 1.34037 24.2336 1.52729 24.1766 1.74515C24.1197 1.963 24.1472 2.19496 24.2532 2.3926C24.3592 2.59024 24.5357 2.7383 24.7457 2.80588C24.8541 2.83588 24.9672 2.84368 25.0786 2.82884C25.1899 2.814 25.2973 2.77681 25.3946 2.7194C25.4919 2.66199 25.5772 2.58548 25.6456 2.49426C25.714 2.40304 25.7642 2.2989 25.7933 2.18779ZM16.6349 1.73383C16.6057 1.62279 16.5555 1.51873 16.4871 1.42761C16.4186 1.33649 16.3333 1.26011 16.236 1.20284C16.1387 1.14556 16.0313 1.10853 15.92 1.09385C15.8087 1.07918 15.6956 1.08715 15.5873 1.11732C15.4791 1.14676 15.3775 1.19778 15.2885 1.26746C15.1996 1.33713 15.1249 1.4241 15.0687 1.52338C15.0126 1.62266 14.9761 1.73231 14.9614 1.84604C14.9467 1.95978 14.954 2.07538 14.9829 2.18622C15.0119 2.29733 15.062 2.4015 15.1303 2.49279C15.1986 2.58408 15.2838 2.6607 15.381 2.71826C15.4782 2.77583 15.5855 2.81322 15.6968 2.82829C15.8081 2.84337 15.9212 2.83585 16.0297 2.80614C16.1382 2.77644 16.2399 2.72514 16.329 2.65517C16.4181 2.58521 16.4929 2.49795 16.5491 2.39838C16.6053 2.2988 16.6418 2.18887 16.6565 2.07484C16.6712 1.96082 16.6639 1.84494 16.6349 1.73383Z" fill="white"/>
</g>
</svg>
