<svg width="231" height="76" viewBox="0 0 231 76" fill="none" xmlns="http://www.w3.org/2000/svg">
<g id="slider-decoration-1.svg" clip-path="url(#clip0_1_570)">
<g id="Layer 2">
<g id="Isolation Mode">
<path id="Vector" d="M230.368 133.644C230.315 107.297 222.417 81.5626 207.681 59.7222C196.497 43.2993 181.843 29.5329 164.754 19.3958C147.665 9.25879 128.559 2.99849 108.785 1.05732C89.0103 -0.883848 69.0511 1.54149 50.3172 8.16193C31.5833 14.7824 14.532 25.4364 0.368164 39.3711L38.9325 77.5394C47.3409 69.2255 57.4738 62.8612 68.614 58.8969C79.7543 54.9325 91.6298 53.465 103.4 54.5982C115.17 55.7314 126.548 59.4376 136.727 65.4546C146.906 71.4715 155.639 79.6521 162.307 89.4175C171.101 102.432 175.803 117.778 175.808 133.485L230.368 133.644Z" fill="#7DF4DC"/>
</g>
</g>
</g>
<defs>
<clipPath id="clip0_1_570">
<rect width="230" height="133.312" fill="white" transform="translate(0.368164 0.331665)"/>
</clipPath>
</defs>
</svg>
