<svg width="91" height="31" viewBox="0 0 91 31" fill="none" xmlns="http://www.w3.org/2000/svg">
<g id="Group">
<path id="Vector" fill-rule="evenodd" clip-rule="evenodd" d="M9.82557 2.41091L7.20317 2.39907H3.13889C2.85687 2.39907 0.677222 2.42077 0.677222 2.42077L0.63824 6.033L0.240234 6.04434L0.264298 1.98478L0.24986 0.31676C1.63494 0.385809 6.64009 0.431184 11.8334 0.431184C17.8892 0.431184 21.7903 0.368547 23.3217 0.321693L23.3034 2.16973L23.3356 6.27614L22.9227 6.27171C22.9256 5.93633 22.8553 4.5736 22.8592 4.44044C22.8611 4.39063 22.7725 2.56035 22.76 2.42324L21.0217 2.39857L15.812 2.39759L13.8157 2.40548L13.8186 27.7379C13.8186 27.7724 13.8562 29.3985 13.8629 29.7359C14.0636 29.766 15.9944 29.9026 16.3433 29.9026L16.4795 29.9006V30.5911C16.3761 30.5911 16.2471 30.6024 16.1393 30.6015C15.0425 30.5891 13.2719 30.454 12.0134 30.454C10.7751 30.454 9.0286 30.5793 7.73641 30.5995C7.70224 30.6005 7.43754 30.5946 7.33792 30.5891L7.33503 29.8543C7.34754 29.8543 7.42743 29.8523 7.54823 29.8483C8.09398 29.8252 9.43767 29.7329 9.78852 29.7028L9.84242 29.694L9.82557 2.41091ZM33.2218 30.6207C32.2053 30.6207 30.4771 30.4471 29.183 30.4471C27.9028 30.4471 26.1655 30.6207 24.9151 30.6207C24.8088 30.6207 24.6211 30.5965 24.5181 30.5965V29.8769C24.765 29.871 25.8709 29.7679 26.1775 29.7448C26.538 29.7176 26.871 29.6994 27.0192 29.6496L27.0269 27.439C27.0404 22.7911 27.0669 9.65311 27.025 3.70852C27.0202 3.08117 27.0163 1.49108 27.0163 1.26125C26.782 1.23757 26.4547 1.20551 26.2198 1.17346C25.9268 1.15718 24.7188 1.03931 24.5128 1.02698L24.5051 0.307391C25.7034 0.307391 27.4822 0.432663 28.926 0.432663C30.3053 0.432663 32.1764 0.307391 33.5938 0.307391L33.5909 1.05755C33.3661 1.07333 32.8194 1.10835 32.8011 1.11033C32.3882 1.15077 31.2327 1.28492 30.9487 1.30564V3.61827C30.9478 8.94142 30.9425 22.8675 30.9401 27.5569V29.077C30.9401 29.4355 30.942 29.6501 30.9454 29.6634C30.9526 29.6905 31.6769 29.7596 31.8439 29.7704C32.1635 29.8089 33.4783 29.8676 33.5182 29.8774H33.6068L33.6058 30.597C33.5197 30.5965 33.3098 30.6207 33.2218 30.6207ZM42.346 10.4028C42.346 10.4028 41.6915 14.1097 40.7473 19.3396C40.2468 22.1652 39.2111 29.2308 39.1413 29.6969C39.7386 29.7887 40.9148 29.8868 41.2348 29.876C41.3084 29.876 41.4345 29.8789 41.5264 29.8789L41.5255 30.5946C41.3728 30.6073 41.2196 30.6137 41.0664 30.6138C39.9335 30.5896 39.1172 30.5009 37.8948 30.5009C37.5733 30.5009 35.873 30.5916 35.2743 30.6128C35.0246 30.6242 34.6713 30.5965 34.6035 30.5995L34.6044 29.8903C34.6627 29.8903 34.7815 29.8651 34.8571 29.8631C35.3985 29.838 36.2325 29.7522 36.939 29.658C36.9968 29.3103 37.6075 25.8268 37.8015 24.5928C38.5518 20.5095 40.7636 6.86602 41.0404 5.02587C41.2329 3.45022 41.4164 1.87341 41.5909 0.295553C42.1771 0.30591 43.1887 0.282236 43.1887 0.282236C43.1887 0.282236 45.146 6.51486 45.4641 7.42728C45.7823 8.3402 51.7639 24.1114 51.7639 24.1114C51.7639 24.1114 54.5716 17.3165 57.0737 10.0245C57.5805 8.54834 58.2451 6.62287 58.7345 5.06434C59.4506 2.78327 60.2385 0.28125 60.2385 0.28125H61.778C61.778 0.28125 62.1597 3.06687 62.2949 4.30678C62.6876 7.91704 65.2605 22.5854 66.1638 27.4094C66.3885 28.6163 66.5594 29.6614 66.5594 29.6614C66.8255 29.6807 67.8651 29.7867 68.4816 29.8385C68.6106 29.8498 68.9561 29.8691 69.035 29.8691L69.0389 30.5965C69.0389 30.5965 68.7578 30.6108 68.6048 30.6108C67.225 30.602 65.0761 30.4752 63.7498 30.4752C62.5702 30.4752 61.4354 30.5793 60.2558 30.6054C60.0546 30.6094 59.8525 30.5995 59.6475 30.5995V29.8809C59.7295 29.8751 59.8117 29.8728 59.8939 29.874C60.47 29.8459 61.9975 29.692 62.1491 29.6851C62.1501 29.4212 62.0663 28.5068 61.9422 27.5737C61.8565 26.9148 61.7111 25.7888 61.5547 24.6791C61.2193 22.5213 59.6643 13.582 59.2018 11.1002C59.1258 10.6933 59.0786 10.4649 59.0786 10.4649C59.0786 10.4649 54.2621 23.1279 53.2905 25.6231C53.1966 25.8677 53.1288 26.0403 53.1061 26.097C52.1773 28.5004 51.3991 30.6429 51.3991 30.6429L50.0285 30.634L42.5241 10.8634L42.346 10.4028ZM89.9999 6.23274L89.6023 6.23373L89.5985 6.02067C89.5571 5.49294 89.4705 3.99952 89.3607 2.74333C89.3506 2.63137 89.3333 2.54358 89.3333 2.54358C89.0946 2.53568 88.1253 2.50363 88.1095 2.48735C88.0945 2.47256 87.3216 2.4617 87.3057 2.45332C87.2971 2.44937 84.7632 2.43359 82.15 2.43162C80.3669 2.42965 78.6117 2.44148 77.5356 2.44148C77.2714 2.4405 76.3228 2.47848 76.3228 2.47848L76.317 14.3987L83.7853 14.4249C83.8209 14.4249 85.7638 14.3627 85.8109 14.3637C85.9284 14.3647 87.2624 14.2853 87.313 14.267C87.313 14.267 87.3327 14.1423 87.3645 14.051C87.4727 13.3299 87.6099 12.6444 87.6436 12.1098C87.6436 12.1098 87.6782 11.8804 87.6802 11.7256L88.1051 11.7162C88.1051 11.7719 88.1268 11.909 88.1249 12.1038C88.121 12.8224 88.0705 14.3139 88.0724 15.2924C88.0743 16.7 88.1109 17.9715 88.1196 18.6082C88.1253 18.7902 88.1138 19.0802 88.1138 19.0802H87.6474C87.6388 19.0126 87.6316 18.9436 87.6219 18.8701C87.55 18.1302 87.4589 17.3925 87.3486 16.6576C87.3447 16.6152 87.3211 16.4657 87.311 16.3706C86.9109 16.3488 86.5104 16.3327 86.1098 16.3222C85.964 16.3163 84.1433 16.303 82.0941 16.3C81.2548 16.299 79.747 16.3395 79.1079 16.3375C78.3586 16.3375 77.1217 16.3868 76.3141 16.4164L76.3228 27.2265L76.3546 28.6183L80.889 28.6992L87.3466 28.6933C87.376 28.6933 88.8251 28.6336 89.2775 28.6429C89.3733 28.6449 89.5672 28.6277 89.5672 28.6277C89.6096 28.278 89.663 27.5707 89.7159 26.8955C89.7207 26.8156 89.8815 25.0228 89.8815 24.5405L90.279 24.5355C90.279 24.9913 90.1943 30.6542 90.1943 30.6542C89.4666 30.6542 87.2326 30.6523 84.4745 30.6108C82.8001 30.5847 80.9362 30.5867 79.0978 30.559C77.6059 30.5369 76.1303 30.4821 74.7881 30.4851C72.875 30.487 71.002 30.6153 70.2743 30.6163C70.1078 30.6163 69.8137 30.6049 69.7497 30.6049V29.8932H69.884C70.3325 29.8903 71.6512 29.8104 72.3394 29.6792C72.3394 29.5357 72.3856 27.7729 72.3856 27.7364L72.3817 4.34969C72.3817 3.26859 72.363 1.46593 72.363 1.30613C71.9736 1.25878 71.8355 1.23412 71.7537 1.21637C71.3412 1.15669 70.526 1.08369 70.09 1.05213C69.9807 1.0536 69.8715 1.04501 69.7637 1.02648C69.7637 1.02648 69.7617 0.326624 69.7579 0.31676C69.8565 0.322678 70.0606 0.306896 70.4264 0.309362C71.1964 0.312815 72.6127 0.429212 74.3443 0.431184C75.432 0.432171 77.1867 0.377919 78.4437 0.36115C80.2365 0.36115 81.5975 0.343396 83.3334 0.332545C86.1676 0.312817 88.5878 0.292101 89.5335 0.287169C89.8107 0.286183 89.9623 0.284704 89.9623 0.284704C89.9623 0.34093 89.9604 0.404553 89.9604 0.477054C89.9604 0.701955 89.9503 1.09701 89.9546 1.58134C89.9642 3.08808 89.9999 5.45891 89.9999 6.23274Z" fill="white"/>
</g>
</svg>
