<svg width="57" height="31" viewBox="0 0 57 31" fill="none" xmlns="http://www.w3.org/2000/svg">
<path id="Vector" d="M10.0552 0.384748V0.995027L10.6081 1.12529C11.4578 1.34299 11.5858 1.86583 11.9253 3.5209L12.8099 8.17384L10.3443 21.765L6.9863 4.68793C6.60323 2.81427 6.47611 1.42062 7.8369 1.11548L8.47419 0.985212V0.384748H0.534119V0.995027L1.34206 1.21362C2.14999 1.43132 2.48954 1.82301 3.04238 4.3935L8.44024 30.5739H9.83323L13.4463 10.797L17.4512 30.5739H18.5569L23.7432 5.20274C24.3387 2.28518 24.5938 1.45541 25.615 1.18775L26.4221 0.969152V0.384748H20.5889V0.995027L21.4813 1.16901C22.7567 1.43043 23.0536 2.25752 22.4581 5.61227L19.2786 21.765L16.0573 4.68793C15.7091 2.98914 15.5045 1.42062 16.9079 1.1592L17.843 0.985212V0.374933L10.0552 0.384748ZM47.8786 0.466832V1.07711L48.9407 1.33853C49.8749 1.55623 50.258 1.90509 50.258 3.12476V24.2526C50.258 26.6044 50.258 29.6978 47.8768 29.6978C46.5169 29.6978 45.4565 28.4781 45.5401 27.6501C45.6245 26.3002 47.9203 26.3867 48.0475 24.2088C48.1754 22.6921 47.2395 21.9783 46.3045 21.856C44.9872 21.6821 43.3722 22.8143 43.3287 25.0796C43.2869 27.9972 45.157 30.6542 48.3435 30.6542C51.8695 30.6542 54.1766 28.2167 54.1766 23.5548L54.1775 3.16758C54.1775 1.94792 54.4753 1.55534 55.325 1.33853L56.2539 1.0673V0.457017L47.8786 0.466832ZM33.5568 0.28125C29.9437 0.28125 27.9039 3.37458 27.9039 7.42526C27.9039 14.9619 37.3832 17.8803 37.3832 24.6764C37.3832 27.9 36.0651 29.6853 34.1619 29.6853C31.315 29.6853 29.2734 26.1583 28.764 20.5382H28.1267V30.4704H28.6369C29.0618 29.0429 29.6146 28.9028 30.0822 28.9028C30.8901 28.9028 31.739 30.6426 34.2046 30.6426C37.9874 30.6426 40.4521 27.2897 40.4539 22.6698C40.4539 13.6092 30.9746 11.3876 30.9746 4.89671C30.9746 3.41562 31.3994 1.2386 33.5255 1.2386C36.5866 1.2386 37.9047 5.37672 38.414 10.3865H39.0513V0.456125H38.5411C38.3287 1.41437 37.9465 1.84977 37.3937 1.84977C36.4159 1.84977 35.9136 0.282142 33.5681 0.282142L33.5568 0.28125ZM40.3999 8.82427V8.93133L40.4199 8.91884L40.4095 8.82962L40.3999 8.82427Z" fill="white"/>
</svg>
